%TF.GenerationSoftware,KiCad,Pcbnew,9.0.7*%
%TF.CreationDate,2026-03-25T21:57:08+11:00*%
%TF.ProjectId,A1-Toolhead-Board,41312d54-6f6f-46c6-9865-61642d426f61,rev?*%
%TF.SameCoordinates,Original*%
%TF.FileFunction,Profile,NP*%
%FSLAX46Y46*%
G04 Gerber Fmt 4.6, Leading zero omitted, Abs format (unit mm)*
G04 Created by KiCad (PCBNEW 9.0.7) date 2026-03-25 21:57:08*
%MOMM*%
%LPD*%
G01*
G04 APERTURE LIST*
%TA.AperFunction,Profile*%
%ADD10C,0.100000*%
%TD*%
G04 APERTURE END LIST*
D10*
X170200000Y-61900000D02*
X134900000Y-61900000D01*
X170300000Y-95800000D02*
X135000000Y-95800000D01*
X134950000Y-61900000D02*
X135000000Y-95800000D01*
X215800000Y-103700000D02*
X215800000Y-95300000D01*
X172100000Y-60200000D02*
X170200000Y-61900000D01*
X180100000Y-103800000D02*
X180100000Y-102300000D01*
X212700000Y-61600000D02*
X208800000Y-61600000D01*
X184700000Y-102300000D02*
X184700000Y-103800000D01*
X184700000Y-103800000D02*
X215800000Y-103700000D01*
X187600000Y-60200000D02*
X187600000Y-62700000D01*
X174500000Y-95800000D02*
X174500000Y-103800000D01*
X187600000Y-62700000D02*
X177200000Y-62700000D01*
X174500000Y-103800000D02*
X180100000Y-103800000D01*
X219800000Y-92300000D02*
X219800000Y-62000000D01*
X219800000Y-62000000D02*
X218000000Y-60200000D01*
X208800000Y-60200000D02*
X187600000Y-60200000D01*
X218000000Y-60200000D02*
X212700000Y-60200000D01*
X177200000Y-60200000D02*
X172100000Y-60200000D01*
X212700000Y-60200000D02*
X212700000Y-61600000D01*
X170250000Y-95800000D02*
X174500000Y-95800000D01*
X208800000Y-61600000D02*
X208800000Y-60200000D01*
X218300000Y-95300000D02*
X218300000Y-92300000D01*
X218300000Y-92300000D02*
X219800000Y-92300000D01*
X180100000Y-102300000D02*
X184700000Y-102300000D01*
X177200000Y-62700000D02*
X177200000Y-60200000D01*
X215800000Y-95300000D02*
X218300000Y-95300000D01*
%TO.C,H3*%
X175700000Y-62200000D02*
G75*
G02*
X174300000Y-62200000I-700000J0D01*
G01*
X174300000Y-62200000D02*
G75*
G02*
X175700000Y-62200000I700000J0D01*
G01*
%TO.C,H1*%
X215400000Y-62300000D02*
G75*
G02*
X214000000Y-62300000I-700000J0D01*
G01*
X214000000Y-62300000D02*
G75*
G02*
X215400000Y-62300000I700000J0D01*
G01*
%TO.C,H2*%
X178700000Y-100000000D02*
G75*
G02*
X177300000Y-100000000I-700000J0D01*
G01*
X177300000Y-100000000D02*
G75*
G02*
X178700000Y-100000000I700000J0D01*
G01*
%TD*%
M02*
