M48
; DRILL file {KiCad 9.0.7} date 2026-03-25T21:57:08+1100
; FORMAT={-:-/ absolute / inch / decimal}
; #@! TF.CreationDate,2026-03-25T21:57:08+11:00
; #@! TF.GenerationSoftware,Kicad,Pcbnew,9.0.7
; #@! TF.FileFunction,Plated,1,2,PTH
FMAT,2
INCH
; #@! TA.AperFunction,Plated,PTH,ComponentDrill
T1C0.0079
; #@! TA.AperFunction,Plated,PTH,ComponentDrill
T2C0.0236
; #@! TA.AperFunction,Plated,PTH,ComponentDrill
T3C0.0374
; #@! TA.AperFunction,Plated,PTH,ComponentDrill
T4C0.0394
; #@! TA.AperFunction,Plated,PTH,ComponentDrill
T5C0.0591
%
G90
G05
T1
X6.9331Y-3.2835
X6.9331Y-3.3228
X6.9331Y-3.3622
X6.9331Y-3.4016
X6.9724Y-3.2835
X6.9724Y-3.3228
X6.9724Y-3.3622
X6.9724Y-3.4016
X7.0118Y-3.2835
X7.0118Y-3.3228
X7.0118Y-3.3622
X7.0118Y-3.4016
X7.0512Y-3.2835
X7.0512Y-3.3228
X7.0512Y-3.3622
X7.0512Y-3.4016
T3
X6.8465Y-2.9567
X6.9449Y-2.9567
X7.0433Y-2.9567
X7.1417Y-2.9567
X7.9764Y-3.9577
X8.0748Y-3.9577
X8.1732Y-3.9577
X8.2343Y-2.8691
X8.2717Y-3.9577
X8.3327Y-2.8691
X8.3701Y-3.9577
X8.4311Y-2.8691
X8.5295Y-2.8691
T4
X7.3827Y-3.8622
X7.4827Y-3.8622
X7.4866Y-4.0039
X7.5827Y-3.8622
X7.5866Y-4.0039
X7.6827Y-3.8622
X7.6866Y-4.0039
X7.7717Y-3.4969
X7.7717Y-3.5969
X7.7717Y-3.6969
X7.7827Y-3.8622
X7.7866Y-4.0039
X8.2415Y-3.6417
X8.2677Y-2.5315
X8.2677Y-2.6299
X8.3415Y-3.6417
X8.4311Y-3.1447
X8.5295Y-3.1447
T5
X6.8898Y-2.4488
X7.0079Y-3.937
X8.4528Y-2.4528
T2
G00X7.4598Y-2.5114
M15
G01X7.4598Y-2.4878
M16
G05
G00X7.4598Y-2.6858
M15
G01X7.4598Y-2.6425
M16
G05
G00X7.8Y-2.5114
M15
G01X7.8Y-2.4878
M16
G05
G00X7.8Y-2.6858
M15
G01X7.8Y-2.6425
M16
G05
M30
