%TF.GenerationSoftware,KiCad,Pcbnew,9.0.7*%
%TF.CreationDate,2026-03-25T21:57:08+11:00*%
%TF.ProjectId,A1-Toolhead-Board,41312d54-6f6f-46c6-9865-61642d426f61,rev?*%
%TF.SameCoordinates,Original*%
%TF.FileFunction,Copper,L1,Top*%
%TF.FilePolarity,Positive*%
%FSLAX46Y46*%
G04 Gerber Fmt 4.6, Leading zero omitted, Abs format (unit mm)*
G04 Created by KiCad (PCBNEW 9.0.7) date 2026-03-25 21:57:08*
%MOMM*%
%LPD*%
G01*
G04 APERTURE LIST*
G04 Aperture macros list*
%AMRoundRect*
0 Rectangle with rounded corners*
0 $1 Rounding radius*
0 $2 $3 $4 $5 $6 $7 $8 $9 X,Y pos of 4 corners*
0 Add a 4 corners polygon primitive as box body*
4,1,4,$2,$3,$4,$5,$6,$7,$8,$9,$2,$3,0*
0 Add four circle primitives for the rounded corners*
1,1,$1+$1,$2,$3*
1,1,$1+$1,$4,$5*
1,1,$1+$1,$6,$7*
1,1,$1+$1,$8,$9*
0 Add four rect primitives between the rounded corners*
20,1,$1+$1,$2,$3,$4,$5,0*
20,1,$1+$1,$4,$5,$6,$7,0*
20,1,$1+$1,$6,$7,$8,$9,0*
20,1,$1+$1,$8,$9,$2,$3,0*%
%AMFreePoly0*
4,1,7,1.050000,-0.975000,-0.250000,-0.975000,-0.250000,-0.625000,-1.050000,-0.625000,-1.050000,0.975000,1.050000,0.975000,1.050000,-0.975000,1.050000,-0.975000,$1*%
%AMFreePoly1*
4,1,7,1.050000,-0.625000,0.250000,-0.625000,0.250000,-0.975000,-1.050000,-0.975000,-1.050000,0.975000,1.050000,0.975000,1.050000,-0.625000,1.050000,-0.625000,$1*%
G04 Aperture macros list end*
%ADD10C,0.300000*%
%TA.AperFunction,NonConductor*%
%ADD11C,0.300000*%
%TD*%
%TA.AperFunction,ComponentPad*%
%ADD12RoundRect,0.250000X-0.750000X0.600000X-0.750000X-0.600000X0.750000X-0.600000X0.750000X0.600000X0*%
%TD*%
%TA.AperFunction,ComponentPad*%
%ADD13O,2.000000X1.700000*%
%TD*%
%TA.AperFunction,ComponentPad*%
%ADD14RoundRect,0.250000X-0.600000X-0.750000X0.600000X-0.750000X0.600000X0.750000X-0.600000X0.750000X0*%
%TD*%
%TA.AperFunction,ComponentPad*%
%ADD15O,1.700000X2.000000*%
%TD*%
%TA.AperFunction,SMDPad,CuDef*%
%ADD16RoundRect,0.140000X-0.140000X-0.170000X0.140000X-0.170000X0.140000X0.170000X-0.140000X0.170000X0*%
%TD*%
%TA.AperFunction,SMDPad,CuDef*%
%ADD17RoundRect,0.140000X-0.170000X0.140000X-0.170000X-0.140000X0.170000X-0.140000X0.170000X0.140000X0*%
%TD*%
%TA.AperFunction,SMDPad,CuDef*%
%ADD18R,0.600000X1.450000*%
%TD*%
%TA.AperFunction,SMDPad,CuDef*%
%ADD19R,0.300000X1.450000*%
%TD*%
%TA.AperFunction,HeatsinkPad*%
%ADD20O,1.000000X2.100000*%
%TD*%
%TA.AperFunction,HeatsinkPad*%
%ADD21O,1.000000X1.600000*%
%TD*%
%TA.AperFunction,ComponentPad*%
%ADD22R,1.700000X1.700000*%
%TD*%
%TA.AperFunction,ComponentPad*%
%ADD23C,1.700000*%
%TD*%
%TA.AperFunction,SMDPad,CuDef*%
%ADD24RoundRect,0.250000X-0.325000X-0.650000X0.325000X-0.650000X0.325000X0.650000X-0.325000X0.650000X0*%
%TD*%
%TA.AperFunction,SMDPad,CuDef*%
%ADD25RoundRect,0.135000X-0.135000X-0.185000X0.135000X-0.185000X0.135000X0.185000X-0.135000X0.185000X0*%
%TD*%
%TA.AperFunction,ComponentPad*%
%ADD26RoundRect,0.250000X-0.600000X-0.725000X0.600000X-0.725000X0.600000X0.725000X-0.600000X0.725000X0*%
%TD*%
%TA.AperFunction,ComponentPad*%
%ADD27O,1.700000X1.950000*%
%TD*%
%TA.AperFunction,SMDPad,CuDef*%
%ADD28R,0.585000X0.510000*%
%TD*%
%TA.AperFunction,SMDPad,CuDef*%
%ADD29R,3.960000X3.990000*%
%TD*%
%TA.AperFunction,SMDPad,CuDef*%
%ADD30R,0.470000X0.410000*%
%TD*%
%TA.AperFunction,SMDPad,CuDef*%
%ADD31RoundRect,0.102500X-0.102500X0.257500X-0.102500X-0.257500X0.102500X-0.257500X0.102500X0.257500X0*%
%TD*%
%TA.AperFunction,SMDPad,CuDef*%
%ADD32RoundRect,0.100000X-0.130000X-0.100000X0.130000X-0.100000X0.130000X0.100000X-0.130000X0.100000X0*%
%TD*%
%TA.AperFunction,SMDPad,CuDef*%
%ADD33RoundRect,0.140000X0.140000X0.170000X-0.140000X0.170000X-0.140000X-0.170000X0.140000X-0.170000X0*%
%TD*%
%TA.AperFunction,SMDPad,CuDef*%
%ADD34RoundRect,0.250000X-0.300000X-0.550000X0.300000X-0.550000X0.300000X0.550000X-0.300000X0.550000X0*%
%TD*%
%TA.AperFunction,SMDPad,CuDef*%
%ADD35RoundRect,0.225000X0.250000X-0.225000X0.250000X0.225000X-0.250000X0.225000X-0.250000X-0.225000X0*%
%TD*%
%TA.AperFunction,SMDPad,CuDef*%
%ADD36RoundRect,0.375000X-0.375000X0.625000X-0.375000X-0.625000X0.375000X-0.625000X0.375000X0.625000X0*%
%TD*%
%TA.AperFunction,SMDPad,CuDef*%
%ADD37RoundRect,0.500000X-1.400000X0.500000X-1.400000X-0.500000X1.400000X-0.500000X1.400000X0.500000X0*%
%TD*%
%TA.AperFunction,SMDPad,CuDef*%
%ADD38RoundRect,0.250000X1.950000X1.000000X-1.950000X1.000000X-1.950000X-1.000000X1.950000X-1.000000X0*%
%TD*%
%TA.AperFunction,SMDPad,CuDef*%
%ADD39RoundRect,0.140000X0.170000X-0.140000X0.170000X0.140000X-0.170000X0.140000X-0.170000X-0.140000X0*%
%TD*%
%TA.AperFunction,SMDPad,CuDef*%
%ADD40RoundRect,0.225000X-0.250000X0.225000X-0.250000X-0.225000X0.250000X-0.225000X0.250000X0.225000X0*%
%TD*%
%TA.AperFunction,SMDPad,CuDef*%
%ADD41RoundRect,0.062500X-0.337500X-0.062500X0.337500X-0.062500X0.337500X0.062500X-0.337500X0.062500X0*%
%TD*%
%TA.AperFunction,SMDPad,CuDef*%
%ADD42RoundRect,0.062500X-0.062500X-0.337500X0.062500X-0.337500X0.062500X0.337500X-0.062500X0.337500X0*%
%TD*%
%TA.AperFunction,HeatsinkPad*%
%ADD43C,0.500000*%
%TD*%
%TA.AperFunction,HeatsinkPad*%
%ADD44R,3.700000X3.700000*%
%TD*%
%TA.AperFunction,ComponentPad*%
%ADD45C,3.000000*%
%TD*%
%TA.AperFunction,SMDPad,CuDef*%
%ADD46RoundRect,0.250000X-0.312500X-0.625000X0.312500X-0.625000X0.312500X0.625000X-0.312500X0.625000X0*%
%TD*%
%TA.AperFunction,SMDPad,CuDef*%
%ADD47RoundRect,0.225000X-0.225000X-0.250000X0.225000X-0.250000X0.225000X0.250000X-0.225000X0.250000X0*%
%TD*%
%TA.AperFunction,ComponentPad*%
%ADD48RoundRect,0.250000X0.600000X0.725000X-0.600000X0.725000X-0.600000X-0.725000X0.600000X-0.725000X0*%
%TD*%
%TA.AperFunction,SMDPad,CuDef*%
%ADD49RoundRect,0.075000X0.075000X0.475000X-0.075000X0.475000X-0.075000X-0.475000X0.075000X-0.475000X0*%
%TD*%
%TA.AperFunction,SMDPad,CuDef*%
%ADD50FreePoly0,180.000000*%
%TD*%
%TA.AperFunction,SMDPad,CuDef*%
%ADD51FreePoly1,180.000000*%
%TD*%
%TA.AperFunction,SMDPad,CuDef*%
%ADD52RoundRect,0.250000X0.312500X0.625000X-0.312500X0.625000X-0.312500X-0.625000X0.312500X-0.625000X0*%
%TD*%
%TA.AperFunction,SMDPad,CuDef*%
%ADD53RoundRect,0.150000X-0.587500X-0.150000X0.587500X-0.150000X0.587500X0.150000X-0.587500X0.150000X0*%
%TD*%
%TA.AperFunction,SMDPad,CuDef*%
%ADD54RoundRect,0.250000X0.350000X-0.450000X0.350000X0.450000X-0.350000X0.450000X-0.350000X-0.450000X0*%
%TD*%
%TA.AperFunction,SMDPad,CuDef*%
%ADD55RoundRect,0.062500X0.062500X-0.375000X0.062500X0.375000X-0.062500X0.375000X-0.062500X-0.375000X0*%
%TD*%
%TA.AperFunction,SMDPad,CuDef*%
%ADD56RoundRect,0.062500X0.375000X-0.062500X0.375000X0.062500X-0.375000X0.062500X-0.375000X-0.062500X0*%
%TD*%
%TA.AperFunction,HeatsinkPad*%
%ADD57R,3.450000X3.450000*%
%TD*%
%TA.AperFunction,Conductor*%
%ADD58C,0.200000*%
%TD*%
G04 APERTURE END LIST*
D10*
D11*
X158954510Y-59100828D02*
X158954510Y-58100828D01*
X158954510Y-58243685D02*
X159025939Y-58172257D01*
X159025939Y-58172257D02*
X159168796Y-58100828D01*
X159168796Y-58100828D02*
X159383082Y-58100828D01*
X159383082Y-58100828D02*
X159525939Y-58172257D01*
X159525939Y-58172257D02*
X159597368Y-58315114D01*
X159597368Y-58315114D02*
X159597368Y-59100828D01*
X159597368Y-58315114D02*
X159668796Y-58172257D01*
X159668796Y-58172257D02*
X159811653Y-58100828D01*
X159811653Y-58100828D02*
X160025939Y-58100828D01*
X160025939Y-58100828D02*
X160168796Y-58172257D01*
X160168796Y-58172257D02*
X160240225Y-58315114D01*
X160240225Y-58315114D02*
X160240225Y-59100828D01*
X161740225Y-59100828D02*
X160883082Y-59100828D01*
X161311653Y-59100828D02*
X161311653Y-57600828D01*
X161311653Y-57600828D02*
X161168796Y-57815114D01*
X161168796Y-57815114D02*
X161025939Y-57957971D01*
X161025939Y-57957971D02*
X160883082Y-58029400D01*
X162383081Y-58957971D02*
X162454510Y-59029400D01*
X162454510Y-59029400D02*
X162383081Y-59100828D01*
X162383081Y-59100828D02*
X162311653Y-59029400D01*
X162311653Y-59029400D02*
X162383081Y-58957971D01*
X162383081Y-58957971D02*
X162383081Y-59100828D01*
X163811653Y-57600828D02*
X163097367Y-57600828D01*
X163097367Y-57600828D02*
X163025939Y-58315114D01*
X163025939Y-58315114D02*
X163097367Y-58243685D01*
X163097367Y-58243685D02*
X163240225Y-58172257D01*
X163240225Y-58172257D02*
X163597367Y-58172257D01*
X163597367Y-58172257D02*
X163740225Y-58243685D01*
X163740225Y-58243685D02*
X163811653Y-58315114D01*
X163811653Y-58315114D02*
X163883082Y-58457971D01*
X163883082Y-58457971D02*
X163883082Y-58815114D01*
X163883082Y-58815114D02*
X163811653Y-58957971D01*
X163811653Y-58957971D02*
X163740225Y-59029400D01*
X163740225Y-59029400D02*
X163597367Y-59100828D01*
X163597367Y-59100828D02*
X163240225Y-59100828D01*
X163240225Y-59100828D02*
X163097367Y-59029400D01*
X163097367Y-59029400D02*
X163025939Y-58957971D01*
X165597367Y-59029400D02*
X165740224Y-59100828D01*
X165740224Y-59100828D02*
X166025938Y-59100828D01*
X166025938Y-59100828D02*
X166168795Y-59029400D01*
X166168795Y-59029400D02*
X166240224Y-58886542D01*
X166240224Y-58886542D02*
X166240224Y-58815114D01*
X166240224Y-58815114D02*
X166168795Y-58672257D01*
X166168795Y-58672257D02*
X166025938Y-58600828D01*
X166025938Y-58600828D02*
X165811653Y-58600828D01*
X165811653Y-58600828D02*
X165668795Y-58529400D01*
X165668795Y-58529400D02*
X165597367Y-58386542D01*
X165597367Y-58386542D02*
X165597367Y-58315114D01*
X165597367Y-58315114D02*
X165668795Y-58172257D01*
X165668795Y-58172257D02*
X165811653Y-58100828D01*
X165811653Y-58100828D02*
X166025938Y-58100828D01*
X166025938Y-58100828D02*
X166168795Y-58172257D01*
X167525939Y-59029400D02*
X167383081Y-59100828D01*
X167383081Y-59100828D02*
X167097367Y-59100828D01*
X167097367Y-59100828D02*
X166954510Y-59029400D01*
X166954510Y-59029400D02*
X166883081Y-58957971D01*
X166883081Y-58957971D02*
X166811653Y-58815114D01*
X166811653Y-58815114D02*
X166811653Y-58386542D01*
X166811653Y-58386542D02*
X166883081Y-58243685D01*
X166883081Y-58243685D02*
X166954510Y-58172257D01*
X166954510Y-58172257D02*
X167097367Y-58100828D01*
X167097367Y-58100828D02*
X167383081Y-58100828D01*
X167383081Y-58100828D02*
X167525939Y-58172257D01*
X168168795Y-59100828D02*
X168168795Y-58100828D01*
X168168795Y-58386542D02*
X168240224Y-58243685D01*
X168240224Y-58243685D02*
X168311653Y-58172257D01*
X168311653Y-58172257D02*
X168454510Y-58100828D01*
X168454510Y-58100828D02*
X168597367Y-58100828D01*
X169668795Y-59029400D02*
X169525938Y-59100828D01*
X169525938Y-59100828D02*
X169240224Y-59100828D01*
X169240224Y-59100828D02*
X169097366Y-59029400D01*
X169097366Y-59029400D02*
X169025938Y-58886542D01*
X169025938Y-58886542D02*
X169025938Y-58315114D01*
X169025938Y-58315114D02*
X169097366Y-58172257D01*
X169097366Y-58172257D02*
X169240224Y-58100828D01*
X169240224Y-58100828D02*
X169525938Y-58100828D01*
X169525938Y-58100828D02*
X169668795Y-58172257D01*
X169668795Y-58172257D02*
X169740224Y-58315114D01*
X169740224Y-58315114D02*
X169740224Y-58457971D01*
X169740224Y-58457971D02*
X169025938Y-58600828D01*
X170240223Y-58100828D02*
X170525938Y-59100828D01*
X170525938Y-59100828D02*
X170811652Y-58386542D01*
X170811652Y-58386542D02*
X171097366Y-59100828D01*
X171097366Y-59100828D02*
X171383080Y-58100828D01*
X171883081Y-59029400D02*
X172025938Y-59100828D01*
X172025938Y-59100828D02*
X172311652Y-59100828D01*
X172311652Y-59100828D02*
X172454509Y-59029400D01*
X172454509Y-59029400D02*
X172525938Y-58886542D01*
X172525938Y-58886542D02*
X172525938Y-58815114D01*
X172525938Y-58815114D02*
X172454509Y-58672257D01*
X172454509Y-58672257D02*
X172311652Y-58600828D01*
X172311652Y-58600828D02*
X172097367Y-58600828D01*
X172097367Y-58600828D02*
X171954509Y-58529400D01*
X171954509Y-58529400D02*
X171883081Y-58386542D01*
X171883081Y-58386542D02*
X171883081Y-58315114D01*
X171883081Y-58315114D02*
X171954509Y-58172257D01*
X171954509Y-58172257D02*
X172097367Y-58100828D01*
X172097367Y-58100828D02*
X172311652Y-58100828D01*
X172311652Y-58100828D02*
X172454509Y-58172257D01*
D12*
%TO.P,J13,1,Pin_1*%
%TO.N,Net-(J13-Pin_1)*%
X210000000Y-64300000D03*
D13*
%TO.P,J13,2,Pin_2*%
%TO.N,+24V*%
X210000000Y-66800000D03*
%TD*%
D14*
%TO.P,J12,1,Pin_1*%
%TO.N,Net-(J12-Pin_1)*%
X214150000Y-79875000D03*
D15*
%TO.P,J12,2,Pin_2*%
%TO.N,GND*%
X216650000Y-79875000D03*
%TD*%
D16*
%TO.P,R16,1*%
%TO.N,+3.3VADC*%
X146400000Y-73200000D03*
%TO.P,R16,2*%
%TO.N,Net-(J12-Pin_1)*%
X147400000Y-73200000D03*
%TD*%
%TO.P,R31,1*%
%TO.N,/fans/PART_FAN_PWM*%
X152410000Y-76460000D03*
%TO.P,R31,2*%
%TO.N,GND*%
X153410000Y-76460000D03*
%TD*%
D17*
%TO.P,C22,1*%
%TO.N,Net-(U2-PF1)*%
X202300000Y-92600000D03*
%TO.P,C22,2*%
%TO.N,GND*%
X202300000Y-93600000D03*
%TD*%
D16*
%TO.P,C20,1*%
%TO.N,+3V3A*%
X208400000Y-81900000D03*
%TO.P,C20,2*%
%TO.N,GND*%
X209400000Y-81900000D03*
%TD*%
D18*
%TO.P,P1,A1,GND*%
%TO.N,GND*%
X197050000Y-68585000D03*
%TO.P,P1,A4,VBUS*%
%TO.N,+24V*%
X196250000Y-68585000D03*
D19*
%TO.P,P1,A5,CC*%
%TO.N,VBUS*%
X195050000Y-68585000D03*
%TO.P,P1,A6,D+*%
%TO.N,/communications/USB_D+*%
X194050000Y-68585000D03*
%TO.P,P1,A7,D-*%
%TO.N,/communications/USB_D-*%
X193550000Y-68585000D03*
%TO.P,P1,A8,SBU1*%
%TO.N,VBUS*%
X192550000Y-68585000D03*
D18*
%TO.P,P1,A9,VBUS*%
%TO.N,+24V*%
X191350000Y-68585000D03*
%TO.P,P1,A12,GND*%
%TO.N,GND*%
X190550000Y-68585000D03*
%TO.P,P1,B1,GND*%
X190550000Y-68585000D03*
%TO.P,P1,B4,VBUS*%
%TO.N,+24V*%
X191350000Y-68585000D03*
D19*
%TO.P,P1,B5,VCONN*%
%TO.N,VBUS*%
X192050000Y-68585000D03*
%TO.P,P1,B6*%
%TO.N,N/C*%
X193050000Y-68585000D03*
%TO.P,P1,B7*%
X194550000Y-68585000D03*
%TO.P,P1,B8,SBU2*%
%TO.N,VBUS*%
X195550000Y-68585000D03*
D18*
%TO.P,P1,B9,VBUS*%
%TO.N,+24V*%
X196250000Y-68585000D03*
%TO.P,P1,B12,GND*%
%TO.N,GND*%
X197050000Y-68585000D03*
D20*
%TO.P,P1,S1,SHIELD*%
X198120000Y-67670000D03*
D21*
X198120000Y-63490000D03*
D20*
X189480000Y-67670000D03*
D21*
X189480000Y-63490000D03*
%TD*%
D22*
%TO.P,SW1,1,A*%
%TO.N,GND*%
X211875000Y-92500000D03*
D23*
%TO.P,SW1,2,B*%
%TO.N,Net-(SW1-B)*%
X209335000Y-92500000D03*
%TD*%
D16*
%TO.P,R29,1*%
%TO.N,/mcu/ADXL_SDA*%
X140110000Y-68560000D03*
%TO.P,R29,2*%
%TO.N,+3V3*%
X141110000Y-68560000D03*
%TD*%
D24*
%TO.P,C11,1*%
%TO.N,VBUS*%
X146240000Y-79100000D03*
%TO.P,C11,2*%
%TO.N,GND*%
X149200000Y-79100000D03*
%TD*%
D16*
%TO.P,R24,1*%
%TO.N,Net-(J7-Pin_1)*%
X152410000Y-72760000D03*
%TO.P,R24,2*%
%TO.N,+3V3*%
X153410000Y-72760000D03*
%TD*%
D22*
%TO.P,J9,1,Pin_1*%
%TO.N,+3V3*%
X190160000Y-101700000D03*
D23*
%TO.P,J9,2,Pin_2*%
%TO.N,GND*%
X192700000Y-101700000D03*
%TO.P,J9,3,Pin_3*%
%TO.N,/mcu/ADXL_SDA*%
X195240000Y-101700000D03*
%TO.P,J9,4,Pin_4*%
%TO.N,/mcu/ADXL_SCK*%
X197780000Y-101700000D03*
%TD*%
D25*
%TO.P,R11,1*%
%TO.N,Net-(J2-Pin_2)*%
X149055000Y-92920000D03*
%TO.P,R11,2*%
%TO.N,Net-(U2-PB8)*%
X150075000Y-92920000D03*
%TD*%
D26*
%TO.P,J7,1,Pin_1*%
%TO.N,Net-(J7-Pin_1)*%
X209150000Y-72875000D03*
D27*
%TO.P,J7,2,Pin_2*%
%TO.N,/fans/PART_FAN_PWM*%
X211650000Y-72875000D03*
%TO.P,J7,3,Pin_3*%
%TO.N,GND*%
X214150000Y-72875000D03*
%TO.P,J7,4,Pin_4*%
%TO.N,+24V*%
X216650000Y-72875000D03*
%TD*%
D28*
%TO.P,Q1,1,D*%
%TO.N,Net-(J13-Pin_1)*%
X204572500Y-65220000D03*
X200027500Y-65220000D03*
D29*
X202300000Y-66300000D03*
D30*
X204515000Y-68090000D03*
X200085000Y-68090000D03*
D31*
%TO.P,Q1,2,G*%
%TO.N,Net-(Q1-G)*%
X200395000Y-62505000D03*
%TO.P,Q1,3,S*%
%TO.N,GND*%
X204205000Y-62505000D03*
X202935000Y-62505000D03*
X201665000Y-62505000D03*
%TD*%
D16*
%TO.P,R23,1*%
%TO.N,/fans/EXTR_FAN_PWM*%
X152410000Y-70910000D03*
%TO.P,R23,2*%
%TO.N,GND*%
X153410000Y-70910000D03*
%TD*%
%TO.P,C23,1*%
%TO.N,Net-(U2-PF0)*%
X138020000Y-75840000D03*
%TO.P,C23,2*%
%TO.N,GND*%
X138980000Y-75840000D03*
%TD*%
%TO.P,R4,1*%
%TO.N,Net-(U1-STEP)*%
X182200000Y-85900000D03*
%TO.P,R4,2*%
%TO.N,/mcu/EXTRUDER_STEP*%
X183200000Y-85900000D03*
%TD*%
D32*
%TO.P,C20,1*%
%TO.N,+3V3A*%
X150525000Y-87100000D03*
%TO.P,C20,2*%
%TO.N,GND*%
X151165000Y-87100000D03*
%TD*%
D16*
%TO.P,R19,1*%
%TO.N,Net-(J6-Pin_2)*%
X152410000Y-67210000D03*
%TO.P,R19,2*%
%TO.N,+3V3*%
X153410000Y-67210000D03*
%TD*%
%TO.P,R25,1*%
%TO.N,/fans/PART_FAN_TACH*%
X152410000Y-74610000D03*
%TO.P,R25,2*%
%TO.N,Net-(J7-Pin_1)*%
X153410000Y-74610000D03*
%TD*%
D32*
%TO.P,C21,1*%
%TO.N,+3V3*%
X150170000Y-70910000D03*
%TO.P,C21,2*%
%TO.N,GND*%
X150810000Y-70910000D03*
%TD*%
D33*
%TO.P,C5,1*%
%TO.N,Net-(U1-VCP)*%
X173100000Y-86900000D03*
%TO.P,C5,2*%
%TO.N,+24V*%
X172100000Y-86900000D03*
%TD*%
D34*
%TO.P,D4,1*%
%TO.N,VBUS*%
X140770000Y-82450000D03*
%TO.P,D4,2*%
%TO.N,GND*%
X143570000Y-82450000D03*
%TD*%
D35*
%TO.P,FB1,1*%
%TO.N,+3V3A*%
X208700000Y-79700000D03*
%TO.P,FB1,2*%
%TO.N,+3V3*%
X208700000Y-78150000D03*
%TD*%
D36*
%TO.P,U3,1,GND*%
%TO.N,GND*%
X192200000Y-83500000D03*
%TO.P,U3,2,VO*%
%TO.N,+3V3*%
X189900000Y-83500000D03*
D37*
X189900000Y-89800000D03*
D36*
%TO.P,U3,3,VI*%
%TO.N,VBUS*%
X187600000Y-83500000D03*
%TD*%
D38*
%TO.P,C2,1*%
%TO.N,+24V*%
X194300000Y-77400000D03*
%TO.P,C2,2*%
%TO.N,GND*%
X186900000Y-77400000D03*
%TD*%
D39*
%TO.P,C23,1*%
%TO.N,Net-(U2-PF0)*%
X206900000Y-93800000D03*
%TO.P,C23,2*%
%TO.N,GND*%
X206900000Y-92800000D03*
%TD*%
D16*
%TO.P,C19,1*%
%TO.N,+3V3A*%
X137490000Y-91050000D03*
%TO.P,C19,2*%
%TO.N,GND*%
X138450000Y-91050000D03*
%TD*%
D34*
%TO.P,D1,1*%
%TO.N,+24V*%
X140770000Y-79100000D03*
%TO.P,D1,2*%
%TO.N,GND*%
X143570000Y-79100000D03*
%TD*%
D33*
%TO.P,R6,1*%
%TO.N,/mcu/EXTRUDER_DIR*%
X183200000Y-84400000D03*
%TO.P,R6,2*%
%TO.N,Net-(U1-DIR)*%
X182200000Y-84400000D03*
%TD*%
D16*
%TO.P,C24,1*%
%TO.N,Net-(U2-PF1)*%
X141605000Y-88310000D03*
%TO.P,C24,2*%
%TO.N,GND*%
X142565000Y-88310000D03*
%TD*%
D40*
%TO.P,C19,1*%
%TO.N,+3V3*%
X200800000Y-88620000D03*
%TO.P,C19,2*%
%TO.N,GND*%
X200800000Y-90180000D03*
%TD*%
D33*
%TO.P,C3,1*%
%TO.N,+24V*%
X173000000Y-82200000D03*
%TO.P,C3,2*%
%TO.N,GND*%
X172000000Y-82200000D03*
%TD*%
D16*
%TO.P,C16,1*%
%TO.N,+3V3*%
X137490000Y-87110000D03*
%TO.P,C16,2*%
%TO.N,GND*%
X138450000Y-87110000D03*
%TD*%
D41*
%TO.P,U1,1,OB2*%
%TO.N,Net-(J1-Pin_4)*%
X175150000Y-83400000D03*
%TO.P,U1,2,~{EN}*%
%TO.N,Net-(U1-~{EN})*%
X175150000Y-83900000D03*
%TO.P,U1,3,GND*%
%TO.N,GND*%
X175150000Y-84400000D03*
%TO.P,U1,4,CPO*%
%TO.N,Net-(U1-CPO)*%
X175150000Y-84900000D03*
%TO.P,U1,5,CPI*%
%TO.N,Net-(U1-CPI)*%
X175150000Y-85400000D03*
%TO.P,U1,6,VCP*%
%TO.N,Net-(U1-VCP)*%
X175150000Y-85900000D03*
%TO.P,U1,7,SPREAD*%
%TO.N,unconnected-(U1-SPREAD-Pad7)*%
X175150000Y-86400000D03*
D42*
%TO.P,U1,8,5VOUT*%
%TO.N,+5V*%
X176100000Y-87350000D03*
%TO.P,U1,9,MS1_AD0*%
%TO.N,GND*%
X176600000Y-87350000D03*
%TO.P,U1,10,MS2_AD1*%
X177100000Y-87350000D03*
%TO.P,U1,11,DIAG*%
%TO.N,Net-(U1-DIAG)*%
X177600000Y-87350000D03*
%TO.P,U1,12,INDEX*%
%TO.N,unconnected-(U1-INDEX-Pad12)*%
X178100000Y-87350000D03*
%TO.P,U1,13,CLK*%
%TO.N,Net-(U1-CLK)*%
X178600000Y-87350000D03*
%TO.P,U1,14,~{PD}_UART*%
%TO.N,/mcu/EXTRUDER_TX*%
X179100000Y-87350000D03*
D41*
%TO.P,U1,15,VCC_IO*%
%TO.N,+3V3*%
X180050000Y-86400000D03*
%TO.P,U1,16,STEP*%
%TO.N,Net-(U1-STEP)*%
X180050000Y-85900000D03*
%TO.P,U1,17,VREF*%
%TO.N,unconnected-(U1-VREF-Pad17)*%
X180050000Y-85400000D03*
%TO.P,U1,18,GND*%
%TO.N,GND*%
X180050000Y-84900000D03*
%TO.P,U1,19,DIR*%
%TO.N,Net-(U1-DIR)*%
X180050000Y-84400000D03*
%TO.P,U1,20,STDBY*%
%TO.N,unconnected-(U1-STDBY-Pad20)*%
X180050000Y-83900000D03*
%TO.P,U1,21,OA2*%
%TO.N,Net-(J1-Pin_1)*%
X180050000Y-83400000D03*
D42*
%TO.P,U1,22,VS*%
%TO.N,+24V*%
X179100000Y-82450000D03*
%TO.P,U1,23,BRA*%
%TO.N,Net-(U1-BRA)*%
X178600000Y-82450000D03*
%TO.P,U1,24,OA1*%
%TO.N,Net-(J1-Pin_2)*%
X178100000Y-82450000D03*
%TO.P,U1,25,NC*%
%TO.N,unconnected-(U1-NC-Pad25)*%
X177600000Y-82450000D03*
%TO.P,U1,26,OB1*%
%TO.N,Net-(J1-Pin_3)*%
X177100000Y-82450000D03*
%TO.P,U1,27,BRB*%
%TO.N,Net-(U1-BRB)*%
X176600000Y-82450000D03*
%TO.P,U1,28,VS*%
%TO.N,+24V*%
X176100000Y-82450000D03*
D43*
%TO.P,U1,29,EXP*%
%TO.N,GND*%
X176100000Y-83400000D03*
X176100000Y-84400000D03*
X176100000Y-85400000D03*
X176100000Y-86400000D03*
X177100000Y-83400000D03*
X177100000Y-84400000D03*
X177100000Y-85400000D03*
X177100000Y-86400000D03*
D44*
X177600000Y-84900000D03*
D43*
X178100000Y-83400000D03*
X178100000Y-84400000D03*
X178100000Y-85400000D03*
X178100000Y-86400000D03*
X179100000Y-83400000D03*
X179100000Y-84400000D03*
X179100000Y-85400000D03*
X179100000Y-86400000D03*
%TD*%
D39*
%TO.P,R8,1*%
%TO.N,GND*%
X178600000Y-90600000D03*
%TO.P,R8,2*%
%TO.N,Net-(U1-CLK)*%
X178600000Y-89600000D03*
%TD*%
D16*
%TO.P,C17,1*%
%TO.N,+3V3*%
X137490000Y-89080000D03*
%TO.P,C17,2*%
%TO.N,GND*%
X138450000Y-89080000D03*
%TD*%
D22*
%TO.P,J10,1,Pin_1*%
%TO.N,GND3*%
X187520000Y-98100000D03*
D23*
%TO.P,J10,2,Pin_2*%
%TO.N,/mcu/BIQU_BL_PROBE*%
X190060000Y-98100000D03*
%TO.P,J10,3,Pin_3*%
%TO.N,GND3*%
X192600000Y-98100000D03*
%TO.P,J10,4,Pin_4*%
%TO.N,+3V3*%
X195140000Y-98100000D03*
%TO.P,J10,5,Pin_5*%
%TO.N,/mcu/BIQU_BL_SERVO*%
X197680000Y-98100000D03*
%TD*%
D16*
%TO.P,C22,1*%
%TO.N,Net-(SW1-B)*%
X141120000Y-72820000D03*
%TO.P,C22,2*%
%TO.N,GND*%
X142080000Y-72820000D03*
%TD*%
%TO.P,C18,1*%
%TO.N,+3V3A*%
X208400000Y-81000000D03*
%TO.P,C18,2*%
%TO.N,GND*%
X209400000Y-81000000D03*
%TD*%
D45*
%TO.P,H3,1,1*%
%TO.N,Net-(H1-Pad1)*%
X175000000Y-62200000D03*
%TD*%
D39*
%TO.P,C17,1*%
%TO.N,+3V3*%
X207500000Y-78900000D03*
%TO.P,C17,2*%
%TO.N,GND*%
X207500000Y-77900000D03*
%TD*%
D16*
%TO.P,C4,1*%
%TO.N,+24V*%
X182200000Y-82400000D03*
%TO.P,C4,2*%
%TO.N,GND*%
X183200000Y-82400000D03*
%TD*%
D46*
%TO.P,R9,1*%
%TO.N,Net-(U1-BRA)*%
X179975000Y-79600000D03*
%TO.P,R9,2*%
%TO.N,GND*%
X182900000Y-79600000D03*
%TD*%
D47*
%TO.P,C18,1*%
%TO.N,+3V3*%
X144750000Y-88400000D03*
%TO.P,C18,2*%
%TO.N,GND*%
X146300000Y-88400000D03*
%TD*%
D33*
%TO.P,R5,1*%
%TO.N,Net-(U1-~{EN})*%
X173100000Y-83200000D03*
%TO.P,R5,2*%
%TO.N,unconnected-(R5-Pad2)*%
X172100000Y-83200000D03*
%TD*%
D39*
%TO.P,R2,1*%
%TO.N,GND*%
X179500000Y-90600000D03*
%TO.P,R2,2*%
%TO.N,/mcu/EXTRUDER_TX*%
X179500000Y-89600000D03*
%TD*%
D24*
%TO.P,C7,1*%
%TO.N,+5V*%
X173420000Y-90300000D03*
%TO.P,C7,2*%
%TO.N,GND*%
X176380000Y-90300000D03*
%TD*%
D48*
%TO.P,J1,1,Pin_1*%
%TO.N,Net-(J1-Pin_1)*%
X181400000Y-75100000D03*
D27*
%TO.P,J1,2,Pin_2*%
%TO.N,Net-(J1-Pin_2)*%
X178900000Y-75100000D03*
%TO.P,J1,3,Pin_3*%
%TO.N,Net-(J1-Pin_3)*%
X176400000Y-75100000D03*
%TO.P,J1,4,Pin_4*%
%TO.N,Net-(J1-Pin_4)*%
X173900000Y-75100000D03*
%TD*%
D39*
%TO.P,C8,1*%
%TO.N,+3V3*%
X205400000Y-78900000D03*
%TO.P,C8,2*%
%TO.N,GND*%
X205400000Y-77900000D03*
%TD*%
D47*
%TO.P,C14,1*%
%TO.N,VBUS*%
X145110000Y-66810000D03*
%TO.P,C14,2*%
%TO.N,GND*%
X146660000Y-66810000D03*
%TD*%
D24*
%TO.P,C12,1*%
%TO.N,+24V*%
X146240000Y-82450000D03*
%TO.P,C12,2*%
%TO.N,GND*%
X149200000Y-82450000D03*
%TD*%
D33*
%TO.P,R7,1*%
%TO.N,Net-(J2-Pin_2)*%
X198500000Y-84700000D03*
%TO.P,R7,2*%
%TO.N,Net-(U2-PB8)*%
X197500000Y-84700000D03*
%TD*%
D16*
%TO.P,R30,1*%
%TO.N,GND*%
X146400000Y-76900000D03*
%TO.P,R30,2*%
%TO.N,/heaters/HOTEND_PWM*%
X147400000Y-76900000D03*
%TD*%
D22*
%TO.P,J2,1,Pin_1*%
%TO.N,+3V3*%
X197400000Y-93900000D03*
D23*
%TO.P,J2,2,Pin_2*%
%TO.N,Net-(J2-Pin_2)*%
X197400000Y-91360000D03*
%TO.P,J2,3,Pin_3*%
%TO.N,GND*%
X197400000Y-88820000D03*
%TD*%
D45*
%TO.P,H1,1,1*%
%TO.N,Net-(H1-Pad1)*%
X214700000Y-62300000D03*
%TD*%
D47*
%TO.P,C15,1*%
%TO.N,+3V3*%
X145110000Y-69320000D03*
%TO.P,C15,2*%
%TO.N,GND*%
X146660000Y-69320000D03*
%TD*%
D17*
%TO.P,C16,1*%
%TO.N,+3V3*%
X201900000Y-88400000D03*
%TO.P,C16,2*%
%TO.N,GND*%
X201900000Y-89400000D03*
%TD*%
D16*
%TO.P,C13,1*%
%TO.N,+3V3*%
X155900000Y-86000000D03*
%TO.P,C13,2*%
%TO.N,GND*%
X156900000Y-86000000D03*
%TD*%
D45*
%TO.P,H2,1,1*%
%TO.N,Net-(H1-Pad1)*%
X178000000Y-100000000D03*
%TD*%
D49*
%TO.P,J14,1,Pin_1*%
%TO.N,Net-(J14-Pin_1)*%
X183650000Y-69700000D03*
%TO.P,J14,2,Pin_2*%
X183150000Y-69700000D03*
%TO.P,J14,3,Pin_3*%
%TO.N,GND*%
X182650000Y-69700000D03*
%TO.P,J14,4,Pin_4*%
%TO.N,/mcu/FILA_SENSOR_1ADC*%
X182150000Y-69700000D03*
%TO.P,J14,5,Pin_5*%
X181650000Y-69700000D03*
%TO.P,J14,6,Pin_6*%
X181150000Y-69700000D03*
%TO.P,J14,7,Pin_7*%
%TO.N,+3V3*%
X180650000Y-69700000D03*
%TO.P,J14,8,Pin_8*%
X180150000Y-69700000D03*
D50*
%TO.P,J14,MP*%
%TO.N,N/C*%
X185900000Y-68575000D03*
D51*
X177900000Y-68575000D03*
%TD*%
D39*
%TO.P,C6,1*%
%TO.N,Net-(U1-CPI)*%
X172100000Y-86000000D03*
%TO.P,C6,2*%
%TO.N,Net-(U1-CPO)*%
X172100000Y-85000000D03*
%TD*%
D16*
%TO.P,R20,1*%
%TO.N,/fans/EXTR_FAN_TACH*%
X152410000Y-69060000D03*
%TO.P,R20,2*%
%TO.N,Net-(J6-Pin_2)*%
X153410000Y-69060000D03*
%TD*%
%TO.P,R27,1*%
%TO.N,Net-(Q1-G)*%
X146400000Y-75050000D03*
%TO.P,R27,2*%
%TO.N,/heaters/HOTEND_PWM*%
X147400000Y-75050000D03*
%TD*%
%TO.P,C1,1*%
%TO.N,/heaters/THERMISTER*%
X146400000Y-71350000D03*
%TO.P,C1,2*%
%TO.N,GND*%
X147400000Y-71350000D03*
%TD*%
D52*
%TO.P,R100,1*%
%TO.N,Net-(U1-BRB)*%
X174862500Y-79600000D03*
%TO.P,R100,2*%
%TO.N,GND*%
X171937500Y-79600000D03*
%TD*%
D48*
%TO.P,J6,1,Pin_1*%
%TO.N,unconnected-(J6-Pin_1-Pad1)*%
X212600000Y-100525000D03*
D27*
%TO.P,J6,2,Pin_2*%
%TO.N,Net-(J6-Pin_2)*%
X210100000Y-100525000D03*
%TO.P,J6,3,Pin_3*%
%TO.N,/fans/EXTR_FAN_PWM*%
X207600000Y-100525000D03*
%TO.P,J6,4,Pin_4*%
%TO.N,GND*%
X205100000Y-100525000D03*
%TO.P,J6,5,Pin_5*%
%TO.N,VBUS*%
X202600000Y-100525000D03*
%TD*%
D25*
%TO.P,R1,1*%
%TO.N,/mcu/EXTRUDER_RX*%
X153865000Y-93800000D03*
%TO.P,R1,2*%
%TO.N,/mcu/EXTRUDER_TX*%
X154885000Y-93800000D03*
%TD*%
D16*
%TO.P,R26,1*%
%TO.N,/mcu/ADXL_SCK*%
X140110000Y-64860000D03*
%TO.P,R26,2*%
%TO.N,+3V3*%
X141110000Y-64860000D03*
%TD*%
D39*
%TO.P,R21,1*%
%TO.N,/mcu/EXTRUDER_DIAG*%
X177700000Y-90600000D03*
%TO.P,R21,2*%
%TO.N,Net-(U1-DIAG)*%
X177700000Y-89600000D03*
%TD*%
D16*
%TO.P,R28,1*%
%TO.N,+3V3*%
X140110000Y-66710000D03*
%TO.P,R28,2*%
%TO.N,/mcu/BIQU_BL_PROBE*%
X141110000Y-66710000D03*
%TD*%
D53*
%TO.P,D3,1,K*%
%TO.N,GND*%
X153600000Y-81100000D03*
%TO.P,D3,2,A*%
%TO.N,+3.3VADC*%
X153600000Y-83000000D03*
%TO.P,D3,3,K*%
%TO.N,Net-(D3-K-Pad3)*%
X155475000Y-82050000D03*
%TD*%
D54*
%TO.P,Y1,1,1*%
%TO.N,Net-(U2-PF0)*%
X205450000Y-93600000D03*
%TO.P,Y1,2,2*%
%TO.N,GND*%
X205450000Y-91400000D03*
%TO.P,Y1,3,3*%
%TO.N,Net-(U2-PF1)*%
X203750000Y-91400000D03*
%TO.P,Y1,4,4*%
%TO.N,GND*%
X203750000Y-93600000D03*
%TD*%
D55*
%TO.P,U2,1,VDD*%
%TO.N,+3V3*%
X201900000Y-85787500D03*
%TO.P,U2,2,PF0*%
%TO.N,Net-(U2-PF0)*%
X202400000Y-85787500D03*
%TO.P,U2,3,PF1*%
%TO.N,Net-(U2-PF1)*%
X202900000Y-85787500D03*
%TO.P,U2,4,PG10*%
%TO.N,Net-(SW1-B)*%
X203400000Y-85787500D03*
%TO.P,U2,5,PA0*%
%TO.N,/mcu/BIQU_BL_SERVO*%
X203900000Y-85787500D03*
%TO.P,U2,6,PA1*%
%TO.N,/mcu/BIQU_BL_PROBE*%
X204400000Y-85787500D03*
%TO.P,U2,7,PA2*%
%TO.N,/mcu/FILA_SENSOR_1ADC*%
X204900000Y-85787500D03*
%TO.P,U2,8,PA3*%
%TO.N,/mcu/FILA_SENSOR_2*%
X205400000Y-85787500D03*
D56*
%TO.P,U2,9,PA4*%
%TO.N,/heaters/THERMISTER*%
X206087500Y-85100000D03*
%TO.P,U2,10,PA5*%
%TO.N,/mcu/EXTRUDER_DIAG*%
X206087500Y-84600000D03*
%TO.P,U2,11,PA6*%
%TO.N,/mcu/EXTRUDER_ENABLE*%
X206087500Y-84100000D03*
%TO.P,U2,12,PA7*%
%TO.N,/mcu/EXTRUDER_DIR*%
X206087500Y-83600000D03*
%TO.P,U2,13,PB0*%
%TO.N,/mcu/EXTRUDER_STEP*%
X206087500Y-83100000D03*
%TO.P,U2,14,VSSA*%
%TO.N,GND*%
X206087500Y-82600000D03*
%TO.P,U2,15,VDDA*%
%TO.N,+3V3A*%
X206087500Y-82100000D03*
%TO.P,U2,16,VSS*%
%TO.N,GND*%
X206087500Y-81600000D03*
D55*
%TO.P,U2,17,VDD*%
%TO.N,+3V3*%
X205400000Y-80912500D03*
%TO.P,U2,18,PA8*%
%TO.N,/heaters/HOTEND_PWM*%
X204900000Y-80912500D03*
%TO.P,U2,19,PA9*%
%TO.N,/mcu/EXTRUDER_TX*%
X204400000Y-80912500D03*
%TO.P,U2,20,PA10*%
%TO.N,/mcu/EXTRUDER_RX*%
X203900000Y-80912500D03*
%TO.P,U2,21,PA11*%
%TO.N,/communications/USB_D-*%
X203400000Y-80912500D03*
%TO.P,U2,22,PA12*%
%TO.N,/communications/USB_D+*%
X202900000Y-80912500D03*
%TO.P,U2,23,PA13*%
%TO.N,/mcu/SWDIO*%
X202400000Y-80912500D03*
%TO.P,U2,24,PA14*%
%TO.N,/mcu/SWCLK*%
X201900000Y-80912500D03*
D56*
%TO.P,U2,25,PA15*%
%TO.N,/mcu/ADXL_SCK*%
X201212500Y-81600000D03*
%TO.P,U2,26,PB3*%
%TO.N,/fans/PART_FAN_PWM*%
X201212500Y-82100000D03*
%TO.P,U2,27,PB4*%
%TO.N,/fans/PART_FAN_TACH*%
X201212500Y-82600000D03*
%TO.P,U2,28,PB5*%
%TO.N,/fans/EXTR_FAN_PWM*%
X201212500Y-83100000D03*
%TO.P,U2,29,PB6*%
%TO.N,/fans/EXTR_FAN_TACH*%
X201212500Y-83600000D03*
%TO.P,U2,30,PB7*%
%TO.N,/mcu/ADXL_SDA*%
X201212500Y-84100000D03*
%TO.P,U2,31,PB8*%
%TO.N,Net-(U2-PB8)*%
X201212500Y-84600000D03*
%TO.P,U2,32,VSS*%
%TO.N,GND*%
X201212500Y-85100000D03*
D57*
%TO.P,U2,33,VSS*%
X203650000Y-83350000D03*
%TD*%
D39*
%TO.P,R11,1*%
%TO.N,+3V3*%
X203700000Y-89300000D03*
%TO.P,R11,2*%
%TO.N,Net-(SW1-B)*%
X203700000Y-88300000D03*
%TD*%
D16*
%TO.P,R3,1*%
%TO.N,/mcu/EXTRUDER_ENABLE*%
X172100000Y-84100000D03*
%TO.P,R3,2*%
%TO.N,Net-(U1-~{EN})*%
X173100000Y-84100000D03*
%TD*%
D58*
%TO.N,/communications/USB_D-*%
X193100000Y-68260000D02*
X193100000Y-69237000D01*
X193100000Y-69237000D02*
X196987000Y-73124000D01*
X197387000Y-80174000D02*
X203324000Y-80174000D01*
X203324000Y-80174000D02*
X203400000Y-80250000D01*
X203400000Y-80250000D02*
X203400000Y-80912500D01*
%TO.N,Net-(SW1-B)*%
X203400000Y-88000000D02*
X203400000Y-85787500D01*
X203700000Y-88300000D02*
X203400000Y-88000000D01*
%TO.N,Net-(U2-PF0)*%
X202400000Y-86240798D02*
X202400000Y-85787500D01*
X202511000Y-86351798D02*
X202400000Y-86240798D01*
X202363450Y-93401000D02*
X201689000Y-92726550D01*
X202511000Y-89789000D02*
X202511000Y-86851798D01*
X206900000Y-92600000D02*
X205650000Y-92600000D01*
X204449000Y-93401000D02*
X202363450Y-93401000D01*
X205650000Y-92600000D02*
X205450000Y-92400000D01*
X201689000Y-90611000D02*
X202511000Y-89789000D01*
X201689000Y-92726550D02*
X201689000Y-90611000D01*
X205450000Y-92400000D02*
X204449000Y-93401000D01*
%TO.N,Net-(U2-PF1)*%
X202550000Y-91400000D02*
X203750000Y-90200000D01*
X202974000Y-89424000D02*
X202974000Y-86361500D01*
X202300000Y-91400000D02*
X202550000Y-91400000D01*
X202974000Y-85861500D02*
X202900000Y-85787500D01*
X203750000Y-90200000D02*
X202974000Y-89424000D01*
%TO.N,Net-(J1-Pin_1)*%
X181400000Y-78050000D02*
X179850000Y-79600000D01*
X180100000Y-76475000D02*
X180100000Y-83474000D01*
%TO.N,Net-(J1-Pin_4)*%
X174150000Y-82400000D02*
X174150000Y-74925000D01*
X175150000Y-83400000D02*
X174150000Y-82400000D01*
%TO.N,Net-(J1-Pin_2)*%
X178100000Y-82034202D02*
X178100000Y-82450000D01*
X178900000Y-78050000D02*
X177632899Y-79317101D01*
X177882899Y-81817101D02*
X178100000Y-82034202D01*
X177882899Y-76192101D02*
X177882899Y-81817101D01*
%TO.N,Net-(J1-Pin_3)*%
X177100000Y-75375000D02*
X177100000Y-82450000D01*
X176400000Y-78050000D02*
X176850000Y-78500000D01*
%TD*%
M02*
