%TF.GenerationSoftware,KiCad,Pcbnew,9.0.7*%
%TF.CreationDate,2026-03-25T21:57:08+11:00*%
%TF.ProjectId,A1-Toolhead-Board,41312d54-6f6f-46c6-9865-61642d426f61,rev?*%
%TF.SameCoordinates,Original*%
%TF.FileFunction,Legend,Top*%
%TF.FilePolarity,Positive*%
%FSLAX46Y46*%
G04 Gerber Fmt 4.6, Leading zero omitted, Abs format (unit mm)*
G04 Created by KiCad (PCBNEW 9.0.7) date 2026-03-25 21:57:08*
%MOMM*%
%LPD*%
G01*
G04 APERTURE LIST*
G04 Aperture macros list*
%AMRoundRect*
0 Rectangle with rounded corners*
0 $1 Rounding radius*
0 $2 $3 $4 $5 $6 $7 $8 $9 X,Y pos of 4 corners*
0 Add a 4 corners polygon primitive as box body*
4,1,4,$2,$3,$4,$5,$6,$7,$8,$9,$2,$3,0*
0 Add four circle primitives for the rounded corners*
1,1,$1+$1,$2,$3*
1,1,$1+$1,$4,$5*
1,1,$1+$1,$6,$7*
1,1,$1+$1,$8,$9*
0 Add four rect primitives between the rounded corners*
20,1,$1+$1,$2,$3,$4,$5,0*
20,1,$1+$1,$4,$5,$6,$7,0*
20,1,$1+$1,$6,$7,$8,$9,0*
20,1,$1+$1,$8,$9,$2,$3,0*%
%AMFreePoly0*
4,1,7,1.050000,-0.975000,-0.250000,-0.975000,-0.250000,-0.625000,-1.050000,-0.625000,-1.050000,0.975000,1.050000,0.975000,1.050000,-0.975000,1.050000,-0.975000,$1*%
%AMFreePoly1*
4,1,7,1.050000,-0.625000,0.250000,-0.625000,0.250000,-0.975000,-1.050000,-0.975000,-1.050000,0.975000,1.050000,0.975000,1.050000,-0.625000,1.050000,-0.625000,$1*%
G04 Aperture macros list end*
%ADD10C,0.300000*%
%ADD11C,0.200000*%
%ADD12C,0.150000*%
%ADD13C,0.100000*%
%ADD14C,0.120000*%
%ADD15RoundRect,0.250000X-0.750000X0.600000X-0.750000X-0.600000X0.750000X-0.600000X0.750000X0.600000X0*%
%ADD16O,2.000000X1.700000*%
%ADD17RoundRect,0.250000X-0.600000X-0.750000X0.600000X-0.750000X0.600000X0.750000X-0.600000X0.750000X0*%
%ADD18O,1.700000X2.000000*%
%ADD19RoundRect,0.159000X-0.159000X-0.189000X0.159000X-0.189000X0.159000X0.189000X-0.159000X0.189000X0*%
%ADD20RoundRect,0.159000X-0.189000X0.159000X-0.189000X-0.159000X0.189000X-0.159000X0.189000X0.159000X0*%
%ADD21C,0.650000*%
%ADD22R,0.600000X1.450000*%
%ADD23R,0.300000X1.450000*%
%ADD24O,1.000000X2.100000*%
%ADD25O,1.000000X1.600000*%
%ADD26R,1.700000X1.700000*%
%ADD27C,1.700000*%
%ADD28RoundRect,0.266521X-0.346479X-0.671479X0.346479X-0.671479X0.346479X0.671479X-0.346479X0.671479X0*%
%ADD29RoundRect,0.135000X-0.135000X-0.185000X0.135000X-0.185000X0.135000X0.185000X-0.135000X0.185000X0*%
%ADD30RoundRect,0.250000X-0.600000X-0.725000X0.600000X-0.725000X0.600000X0.725000X-0.600000X0.725000X0*%
%ADD31O,1.700000X1.950000*%
%ADD32R,0.585000X0.510000*%
%ADD33R,3.960000X3.990000*%
%ADD34R,0.470000X0.410000*%
%ADD35RoundRect,0.102500X-0.102500X0.257500X-0.102500X-0.257500X0.102500X-0.257500X0.102500X0.257500X0*%
%ADD36RoundRect,0.140000X-0.140000X-0.170000X0.140000X-0.170000X0.140000X0.170000X-0.140000X0.170000X0*%
%ADD37RoundRect,0.100000X-0.130000X-0.100000X0.130000X-0.100000X0.130000X0.100000X-0.130000X0.100000X0*%
%ADD38RoundRect,0.159000X0.159000X0.189000X-0.159000X0.189000X-0.159000X-0.189000X0.159000X-0.189000X0*%
%ADD39RoundRect,0.267273X-0.320727X-0.570727X0.320727X-0.570727X0.320727X0.570727X-0.320727X0.570727X0*%
%ADD40RoundRect,0.225000X0.250000X-0.225000X0.250000X0.225000X-0.250000X0.225000X-0.250000X-0.225000X0*%
%ADD41RoundRect,0.375000X-0.375000X0.625000X-0.375000X-0.625000X0.375000X-0.625000X0.375000X0.625000X0*%
%ADD42RoundRect,0.500000X-1.400000X0.500000X-1.400000X-0.500000X1.400000X-0.500000X1.400000X0.500000X0*%
%ADD43RoundRect,0.250000X1.950000X1.000000X-1.950000X1.000000X-1.950000X-1.000000X1.950000X-1.000000X0*%
%ADD44RoundRect,0.159000X0.189000X-0.159000X0.189000X0.159000X-0.189000X0.159000X-0.189000X-0.159000X0*%
%ADD45RoundRect,0.244000X-0.269000X0.244000X-0.269000X-0.244000X0.269000X-0.244000X0.269000X0.244000X0*%
%ADD46RoundRect,0.062500X-0.337500X-0.062500X0.337500X-0.062500X0.337500X0.062500X-0.337500X0.062500X0*%
%ADD47RoundRect,0.062500X-0.062500X-0.337500X0.062500X-0.337500X0.062500X0.337500X-0.062500X0.337500X0*%
%ADD48R,3.700000X3.700000*%
%ADD49C,3.000000*%
%ADD50RoundRect,0.250000X-0.312500X-0.625000X0.312500X-0.625000X0.312500X0.625000X-0.312500X0.625000X0*%
%ADD51RoundRect,0.225000X-0.225000X-0.250000X0.225000X-0.250000X0.225000X0.250000X-0.225000X0.250000X0*%
%ADD52RoundRect,0.250000X0.600000X0.725000X-0.600000X0.725000X-0.600000X-0.725000X0.600000X-0.725000X0*%
%ADD53RoundRect,0.075000X0.075000X0.475000X-0.075000X0.475000X-0.075000X-0.475000X0.075000X-0.475000X0*%
%ADD54FreePoly0,180.000000*%
%ADD55FreePoly1,180.000000*%
%ADD56RoundRect,0.250000X0.312500X0.625000X-0.312500X0.625000X-0.312500X-0.625000X0.312500X-0.625000X0*%
%ADD57RoundRect,0.150000X-0.587500X-0.150000X0.587500X-0.150000X0.587500X0.150000X-0.587500X0.150000X0*%
%ADD58RoundRect,0.250000X0.350000X-0.450000X0.350000X0.450000X-0.350000X0.450000X-0.350000X-0.450000X0*%
%ADD59RoundRect,0.062500X0.062500X-0.375000X0.062500X0.375000X-0.062500X0.375000X-0.062500X-0.375000X0*%
%ADD60RoundRect,0.062500X0.375000X-0.062500X0.375000X0.062500X-0.375000X0.062500X-0.375000X-0.062500X0*%
%ADD61R,3.450000X3.450000*%
G04 APERTURE END LIST*
D10*
X162254510Y-77615114D02*
X162754510Y-77615114D01*
X162968796Y-78400828D02*
X162254510Y-78400828D01*
X162254510Y-78400828D02*
X162254510Y-76900828D01*
X162254510Y-76900828D02*
X162968796Y-76900828D01*
X163468796Y-76900828D02*
X164468796Y-78400828D01*
X164468796Y-76900828D02*
X163468796Y-78400828D01*
X166183081Y-78400828D02*
X166183081Y-76900828D01*
X166183081Y-76900828D02*
X166683081Y-77972257D01*
X166683081Y-77972257D02*
X167183081Y-76900828D01*
X167183081Y-76900828D02*
X167183081Y-78400828D01*
X168183082Y-76900828D02*
X168468796Y-76900828D01*
X168468796Y-76900828D02*
X168611653Y-76972257D01*
X168611653Y-76972257D02*
X168754510Y-77115114D01*
X168754510Y-77115114D02*
X168825939Y-77400828D01*
X168825939Y-77400828D02*
X168825939Y-77900828D01*
X168825939Y-77900828D02*
X168754510Y-78186542D01*
X168754510Y-78186542D02*
X168611653Y-78329400D01*
X168611653Y-78329400D02*
X168468796Y-78400828D01*
X168468796Y-78400828D02*
X168183082Y-78400828D01*
X168183082Y-78400828D02*
X168040225Y-78329400D01*
X168040225Y-78329400D02*
X167897367Y-78186542D01*
X167897367Y-78186542D02*
X167825939Y-77900828D01*
X167825939Y-77900828D02*
X167825939Y-77400828D01*
X167825939Y-77400828D02*
X167897367Y-77115114D01*
X167897367Y-77115114D02*
X168040225Y-76972257D01*
X168040225Y-76972257D02*
X168183082Y-76900828D01*
X169254511Y-76900828D02*
X170111654Y-76900828D01*
X169683082Y-78400828D02*
X169683082Y-76900828D01*
X179554510Y-60715114D02*
X179054510Y-60715114D01*
X179054510Y-61500828D02*
X179054510Y-60000828D01*
X179054510Y-60000828D02*
X179768796Y-60000828D01*
X180340224Y-61500828D02*
X180340224Y-60000828D01*
X181768796Y-61500828D02*
X181054510Y-61500828D01*
X181054510Y-61500828D02*
X181054510Y-60000828D01*
X182197368Y-61429400D02*
X182411654Y-61500828D01*
X182411654Y-61500828D02*
X182768796Y-61500828D01*
X182768796Y-61500828D02*
X182911654Y-61429400D01*
X182911654Y-61429400D02*
X182983082Y-61357971D01*
X182983082Y-61357971D02*
X183054511Y-61215114D01*
X183054511Y-61215114D02*
X183054511Y-61072257D01*
X183054511Y-61072257D02*
X182983082Y-60929400D01*
X182983082Y-60929400D02*
X182911654Y-60857971D01*
X182911654Y-60857971D02*
X182768796Y-60786542D01*
X182768796Y-60786542D02*
X182483082Y-60715114D01*
X182483082Y-60715114D02*
X182340225Y-60643685D01*
X182340225Y-60643685D02*
X182268796Y-60572257D01*
X182268796Y-60572257D02*
X182197368Y-60429400D01*
X182197368Y-60429400D02*
X182197368Y-60286542D01*
X182197368Y-60286542D02*
X182268796Y-60143685D01*
X182268796Y-60143685D02*
X182340225Y-60072257D01*
X182340225Y-60072257D02*
X182483082Y-60000828D01*
X182483082Y-60000828D02*
X182840225Y-60000828D01*
X182840225Y-60000828D02*
X183054511Y-60072257D01*
X183697367Y-61500828D02*
X183697367Y-60000828D01*
X183697367Y-60000828D02*
X184554510Y-61500828D01*
X184554510Y-61500828D02*
X184554510Y-60000828D01*
X185197368Y-61429400D02*
X185411654Y-61500828D01*
X185411654Y-61500828D02*
X185768796Y-61500828D01*
X185768796Y-61500828D02*
X185911654Y-61429400D01*
X185911654Y-61429400D02*
X185983082Y-61357971D01*
X185983082Y-61357971D02*
X186054511Y-61215114D01*
X186054511Y-61215114D02*
X186054511Y-61072257D01*
X186054511Y-61072257D02*
X185983082Y-60929400D01*
X185983082Y-60929400D02*
X185911654Y-60857971D01*
X185911654Y-60857971D02*
X185768796Y-60786542D01*
X185768796Y-60786542D02*
X185483082Y-60715114D01*
X185483082Y-60715114D02*
X185340225Y-60643685D01*
X185340225Y-60643685D02*
X185268796Y-60572257D01*
X185268796Y-60572257D02*
X185197368Y-60429400D01*
X185197368Y-60429400D02*
X185197368Y-60286542D01*
X185197368Y-60286542D02*
X185268796Y-60143685D01*
X185268796Y-60143685D02*
X185340225Y-60072257D01*
X185340225Y-60072257D02*
X185483082Y-60000828D01*
X185483082Y-60000828D02*
X185840225Y-60000828D01*
X185840225Y-60000828D02*
X186054511Y-60072257D01*
X207654510Y-58600828D02*
X207654510Y-57100828D01*
X207654510Y-57815114D02*
X208511653Y-57815114D01*
X208511653Y-58600828D02*
X208511653Y-57100828D01*
X209225939Y-57815114D02*
X209725939Y-57815114D01*
X209940225Y-58600828D02*
X209225939Y-58600828D01*
X209225939Y-58600828D02*
X209225939Y-57100828D01*
X209225939Y-57100828D02*
X209940225Y-57100828D01*
X221600828Y-76659774D02*
X221600828Y-75802632D01*
X223100828Y-76231203D02*
X221600828Y-76231203D01*
X223100828Y-75302632D02*
X221600828Y-75302632D01*
X222315114Y-75302632D02*
X222315114Y-74445489D01*
X223100828Y-74445489D02*
X221600828Y-74445489D01*
X221600828Y-73445488D02*
X221600828Y-73159774D01*
X221600828Y-73159774D02*
X221672257Y-73016917D01*
X221672257Y-73016917D02*
X221815114Y-72874060D01*
X221815114Y-72874060D02*
X222100828Y-72802631D01*
X222100828Y-72802631D02*
X222600828Y-72802631D01*
X222600828Y-72802631D02*
X222886542Y-72874060D01*
X222886542Y-72874060D02*
X223029400Y-73016917D01*
X223029400Y-73016917D02*
X223100828Y-73159774D01*
X223100828Y-73159774D02*
X223100828Y-73445488D01*
X223100828Y-73445488D02*
X223029400Y-73588346D01*
X223029400Y-73588346D02*
X222886542Y-73731203D01*
X222886542Y-73731203D02*
X222600828Y-73802631D01*
X222600828Y-73802631D02*
X222100828Y-73802631D01*
X222100828Y-73802631D02*
X221815114Y-73731203D01*
X221815114Y-73731203D02*
X221672257Y-73588346D01*
X221672257Y-73588346D02*
X221600828Y-73445488D01*
X223100828Y-85802632D02*
X221600828Y-85802632D01*
X221600828Y-85802632D02*
X221600828Y-85231203D01*
X221600828Y-85231203D02*
X221672257Y-85088346D01*
X221672257Y-85088346D02*
X221743685Y-85016917D01*
X221743685Y-85016917D02*
X221886542Y-84945489D01*
X221886542Y-84945489D02*
X222100828Y-84945489D01*
X222100828Y-84945489D02*
X222243685Y-85016917D01*
X222243685Y-85016917D02*
X222315114Y-85088346D01*
X222315114Y-85088346D02*
X222386542Y-85231203D01*
X222386542Y-85231203D02*
X222386542Y-85802632D01*
X222957971Y-83445489D02*
X223029400Y-83516917D01*
X223029400Y-83516917D02*
X223100828Y-83731203D01*
X223100828Y-83731203D02*
X223100828Y-83874060D01*
X223100828Y-83874060D02*
X223029400Y-84088346D01*
X223029400Y-84088346D02*
X222886542Y-84231203D01*
X222886542Y-84231203D02*
X222743685Y-84302632D01*
X222743685Y-84302632D02*
X222457971Y-84374060D01*
X222457971Y-84374060D02*
X222243685Y-84374060D01*
X222243685Y-84374060D02*
X221957971Y-84302632D01*
X221957971Y-84302632D02*
X221815114Y-84231203D01*
X221815114Y-84231203D02*
X221672257Y-84088346D01*
X221672257Y-84088346D02*
X221600828Y-83874060D01*
X221600828Y-83874060D02*
X221600828Y-83731203D01*
X221600828Y-83731203D02*
X221672257Y-83516917D01*
X221672257Y-83516917D02*
X221743685Y-83445489D01*
X222315114Y-81159775D02*
X222315114Y-81659775D01*
X223100828Y-81659775D02*
X221600828Y-81659775D01*
X221600828Y-81659775D02*
X221600828Y-80945489D01*
X222672257Y-80445489D02*
X222672257Y-79731204D01*
X223100828Y-80588346D02*
X221600828Y-80088346D01*
X221600828Y-80088346D02*
X223100828Y-79588346D01*
X223100828Y-79088347D02*
X221600828Y-79088347D01*
X221600828Y-79088347D02*
X223100828Y-78231204D01*
X223100828Y-78231204D02*
X221600828Y-78231204D01*
X201454510Y-106615114D02*
X201954510Y-106615114D01*
X202168796Y-107400828D02*
X201454510Y-107400828D01*
X201454510Y-107400828D02*
X201454510Y-105900828D01*
X201454510Y-105900828D02*
X202168796Y-105900828D01*
X202668796Y-105900828D02*
X203668796Y-107400828D01*
X203668796Y-105900828D02*
X202668796Y-107400828D01*
X205883081Y-106615114D02*
X205383081Y-106615114D01*
X205383081Y-107400828D02*
X205383081Y-105900828D01*
X205383081Y-105900828D02*
X206097367Y-105900828D01*
X206597367Y-106972257D02*
X207311653Y-106972257D01*
X206454510Y-107400828D02*
X206954510Y-105900828D01*
X206954510Y-105900828D02*
X207454510Y-107400828D01*
X207954509Y-107400828D02*
X207954509Y-105900828D01*
X207954509Y-105900828D02*
X208811652Y-107400828D01*
X208811652Y-107400828D02*
X208811652Y-105900828D01*
X183954510Y-107100828D02*
X183954510Y-105600828D01*
X184597368Y-105743685D02*
X184668796Y-105672257D01*
X184668796Y-105672257D02*
X184811654Y-105600828D01*
X184811654Y-105600828D02*
X185168796Y-105600828D01*
X185168796Y-105600828D02*
X185311654Y-105672257D01*
X185311654Y-105672257D02*
X185383082Y-105743685D01*
X185383082Y-105743685D02*
X185454511Y-105886542D01*
X185454511Y-105886542D02*
X185454511Y-106029400D01*
X185454511Y-106029400D02*
X185383082Y-106243685D01*
X185383082Y-106243685D02*
X184525939Y-107100828D01*
X184525939Y-107100828D02*
X185454511Y-107100828D01*
X186954510Y-106957971D02*
X186883082Y-107029400D01*
X186883082Y-107029400D02*
X186668796Y-107100828D01*
X186668796Y-107100828D02*
X186525939Y-107100828D01*
X186525939Y-107100828D02*
X186311653Y-107029400D01*
X186311653Y-107029400D02*
X186168796Y-106886542D01*
X186168796Y-106886542D02*
X186097367Y-106743685D01*
X186097367Y-106743685D02*
X186025939Y-106457971D01*
X186025939Y-106457971D02*
X186025939Y-106243685D01*
X186025939Y-106243685D02*
X186097367Y-105957971D01*
X186097367Y-105957971D02*
X186168796Y-105815114D01*
X186168796Y-105815114D02*
X186311653Y-105672257D01*
X186311653Y-105672257D02*
X186525939Y-105600828D01*
X186525939Y-105600828D02*
X186668796Y-105600828D01*
X186668796Y-105600828D02*
X186883082Y-105672257D01*
X186883082Y-105672257D02*
X186954510Y-105743685D01*
X188668796Y-106672257D02*
X189383082Y-106672257D01*
X188525939Y-107100828D02*
X189025939Y-105600828D01*
X189025939Y-105600828D02*
X189525939Y-107100828D01*
X190025938Y-107100828D02*
X190025938Y-105600828D01*
X190025938Y-105600828D02*
X190383081Y-105600828D01*
X190383081Y-105600828D02*
X190597367Y-105672257D01*
X190597367Y-105672257D02*
X190740224Y-105815114D01*
X190740224Y-105815114D02*
X190811653Y-105957971D01*
X190811653Y-105957971D02*
X190883081Y-106243685D01*
X190883081Y-106243685D02*
X190883081Y-106457971D01*
X190883081Y-106457971D02*
X190811653Y-106743685D01*
X190811653Y-106743685D02*
X190740224Y-106886542D01*
X190740224Y-106886542D02*
X190597367Y-107029400D01*
X190597367Y-107029400D02*
X190383081Y-107100828D01*
X190383081Y-107100828D02*
X190025938Y-107100828D01*
X191383081Y-105600828D02*
X192383081Y-107100828D01*
X192383081Y-105600828D02*
X191383081Y-107100828D01*
X193668795Y-107100828D02*
X192954509Y-107100828D01*
X192954509Y-107100828D02*
X192954509Y-105600828D01*
D11*
X141320314Y-65411279D02*
X141320314Y-65911279D01*
X142106028Y-65911279D02*
X140606028Y-65911279D01*
X140606028Y-65911279D02*
X140606028Y-65196993D01*
X142106028Y-64625565D02*
X140606028Y-64625565D01*
X142106028Y-63196993D02*
X142106028Y-63911279D01*
X142106028Y-63911279D02*
X140606028Y-63911279D01*
X141677457Y-62768421D02*
X141677457Y-62054136D01*
X142106028Y-62911278D02*
X140606028Y-62411278D01*
X140606028Y-62411278D02*
X142106028Y-61911278D01*
D12*
G36*
X161631011Y-64867205D02*
G01*
X161573907Y-64863249D01*
X161531311Y-64854896D01*
X161531311Y-64713772D01*
X161568876Y-64721588D01*
X161610837Y-64724958D01*
X161638991Y-64722086D01*
X161664033Y-64713723D01*
X161684839Y-64698181D01*
X161701549Y-64671176D01*
X161711165Y-64636244D01*
X161715031Y-64581588D01*
X161715031Y-63832300D01*
X161884145Y-63832300D01*
X161884145Y-64580464D01*
X161880099Y-64648781D01*
X161869035Y-64703403D01*
X161852198Y-64746794D01*
X161827554Y-64785865D01*
X161797997Y-64816111D01*
X161763147Y-64838629D01*
X161724128Y-64854188D01*
X161680366Y-64863844D01*
X161631011Y-64867205D01*
G37*
G36*
X162079881Y-64632000D02*
G01*
X162079881Y-63832300D01*
X162251242Y-63832300D01*
X162251242Y-64490876D01*
X162574912Y-64490876D01*
X162574912Y-64632000D01*
X162079881Y-64632000D01*
G37*
G36*
X163033796Y-63963360D02*
G01*
X162987158Y-63968099D01*
X162947164Y-63981690D01*
X162912426Y-64003933D01*
X162882072Y-64035607D01*
X162859012Y-64072691D01*
X162841704Y-64117195D01*
X162830604Y-64170537D01*
X162826629Y-64234421D01*
X162830493Y-64298516D01*
X162841226Y-64351461D01*
X162857845Y-64395091D01*
X162879825Y-64430939D01*
X162908942Y-64460870D01*
X162944445Y-64482482D01*
X162987658Y-64496081D01*
X163040537Y-64500939D01*
X163092494Y-64497826D01*
X163141898Y-64488629D01*
X163190442Y-64474731D01*
X163239888Y-64457268D01*
X163239888Y-64602886D01*
X163175238Y-64624774D01*
X163102841Y-64638428D01*
X163021486Y-64643186D01*
X162957102Y-64639620D01*
X162901420Y-64629526D01*
X162853229Y-64613600D01*
X162811486Y-64592237D01*
X162773041Y-64564216D01*
X162740104Y-64531273D01*
X162712278Y-64493038D01*
X162689413Y-64448915D01*
X162667902Y-64386101D01*
X162654389Y-64314689D01*
X162649651Y-64233297D01*
X162654914Y-64153641D01*
X162670051Y-64082755D01*
X162694445Y-64019341D01*
X162719679Y-63975010D01*
X162749769Y-63936276D01*
X162784897Y-63902632D01*
X162825457Y-63873772D01*
X162869323Y-63851417D01*
X162918482Y-63834977D01*
X162973741Y-63824700D01*
X163036043Y-63821113D01*
X163095456Y-63824298D01*
X163156455Y-63834009D01*
X163216110Y-63850423D01*
X163272372Y-63873772D01*
X163216392Y-64010401D01*
X163175113Y-63992747D01*
X163130662Y-63977380D01*
X163084267Y-63966936D01*
X163033796Y-63963360D01*
G37*
G36*
X163323907Y-64867205D02*
G01*
X163266803Y-64863249D01*
X163224208Y-64854896D01*
X163224208Y-64713772D01*
X163261772Y-64721588D01*
X163303733Y-64724958D01*
X163331887Y-64722086D01*
X163356929Y-64713723D01*
X163377735Y-64698181D01*
X163394445Y-64671176D01*
X163404061Y-64636244D01*
X163407927Y-64581588D01*
X163407927Y-63832300D01*
X163577041Y-63832300D01*
X163577041Y-64580464D01*
X163572995Y-64648781D01*
X163561931Y-64703403D01*
X163545094Y-64746794D01*
X163520450Y-64785865D01*
X163490893Y-64816111D01*
X163456043Y-64838629D01*
X163417024Y-64854188D01*
X163373262Y-64863844D01*
X163323907Y-64867205D01*
G37*
G36*
X163772777Y-64632000D02*
G01*
X163772777Y-63832300D01*
X163944138Y-63832300D01*
X163944138Y-64490876D01*
X164267808Y-64490876D01*
X164267808Y-64632000D01*
X163772777Y-64632000D01*
G37*
G36*
X164726692Y-63963360D02*
G01*
X164680054Y-63968099D01*
X164640060Y-63981690D01*
X164605322Y-64003933D01*
X164574968Y-64035607D01*
X164551908Y-64072691D01*
X164534600Y-64117195D01*
X164523500Y-64170537D01*
X164519525Y-64234421D01*
X164523389Y-64298516D01*
X164534122Y-64351461D01*
X164550741Y-64395091D01*
X164572721Y-64430939D01*
X164601838Y-64460870D01*
X164637341Y-64482482D01*
X164680554Y-64496081D01*
X164733433Y-64500939D01*
X164785390Y-64497826D01*
X164834794Y-64488629D01*
X164883338Y-64474731D01*
X164932784Y-64457268D01*
X164932784Y-64602886D01*
X164868134Y-64624774D01*
X164795737Y-64638428D01*
X164714382Y-64643186D01*
X164649998Y-64639620D01*
X164594316Y-64629526D01*
X164546125Y-64613600D01*
X164504382Y-64592237D01*
X164465937Y-64564216D01*
X164433000Y-64531273D01*
X164405174Y-64493038D01*
X164382309Y-64448915D01*
X164360798Y-64386101D01*
X164347285Y-64314689D01*
X164342547Y-64233297D01*
X164347810Y-64153641D01*
X164362947Y-64082755D01*
X164387341Y-64019341D01*
X164412575Y-63975010D01*
X164442665Y-63936276D01*
X164477793Y-63902632D01*
X164518353Y-63873772D01*
X164562219Y-63851417D01*
X164611378Y-63834977D01*
X164666637Y-63824700D01*
X164728939Y-63821113D01*
X164788352Y-63824298D01*
X164849351Y-63834009D01*
X164909006Y-63850423D01*
X164965268Y-63873772D01*
X164909288Y-64010401D01*
X164868009Y-63992747D01*
X164823559Y-63977380D01*
X164777164Y-63966936D01*
X164726692Y-63963360D01*
G37*
G36*
X165016803Y-64867205D02*
G01*
X164959699Y-64863249D01*
X164917104Y-64854896D01*
X164917104Y-64713772D01*
X164954668Y-64721588D01*
X164996629Y-64724958D01*
X165024783Y-64722086D01*
X165049825Y-64713723D01*
X165070631Y-64698181D01*
X165087341Y-64671176D01*
X165096957Y-64636244D01*
X165100823Y-64581588D01*
X165100823Y-63832300D01*
X165269937Y-63832300D01*
X165269937Y-64580464D01*
X165265891Y-64648781D01*
X165254827Y-64703403D01*
X165237990Y-64746794D01*
X165213346Y-64785865D01*
X165183789Y-64816111D01*
X165148939Y-64838629D01*
X165109920Y-64854188D01*
X165066158Y-64863844D01*
X165016803Y-64867205D01*
G37*
G36*
X165465673Y-64632000D02*
G01*
X165465673Y-63832300D01*
X165637034Y-63832300D01*
X165637034Y-64490876D01*
X165960704Y-64490876D01*
X165960704Y-64632000D01*
X165465673Y-64632000D01*
G37*
G36*
X166419588Y-63963360D02*
G01*
X166372950Y-63968099D01*
X166332956Y-63981690D01*
X166298218Y-64003933D01*
X166267864Y-64035607D01*
X166244804Y-64072691D01*
X166227496Y-64117195D01*
X166216396Y-64170537D01*
X166212421Y-64234421D01*
X166216286Y-64298516D01*
X166227018Y-64351461D01*
X166243637Y-64395091D01*
X166265617Y-64430939D01*
X166294734Y-64460870D01*
X166330237Y-64482482D01*
X166373450Y-64496081D01*
X166426329Y-64500939D01*
X166478286Y-64497826D01*
X166527690Y-64488629D01*
X166576234Y-64474731D01*
X166625680Y-64457268D01*
X166625680Y-64602886D01*
X166561030Y-64624774D01*
X166488633Y-64638428D01*
X166407278Y-64643186D01*
X166342894Y-64639620D01*
X166287212Y-64629526D01*
X166239021Y-64613600D01*
X166197278Y-64592237D01*
X166158833Y-64564216D01*
X166125896Y-64531273D01*
X166098070Y-64493038D01*
X166075205Y-64448915D01*
X166053694Y-64386101D01*
X166040181Y-64314689D01*
X166035443Y-64233297D01*
X166040706Y-64153641D01*
X166055843Y-64082755D01*
X166080237Y-64019341D01*
X166105471Y-63975010D01*
X166135561Y-63936276D01*
X166170689Y-63902632D01*
X166211249Y-63873772D01*
X166255115Y-63851417D01*
X166304274Y-63834977D01*
X166359534Y-63824700D01*
X166421835Y-63821113D01*
X166481248Y-63824298D01*
X166542247Y-63834009D01*
X166601902Y-63850423D01*
X166658164Y-63873772D01*
X166602184Y-64010401D01*
X166560905Y-63992747D01*
X166516455Y-63977380D01*
X166470060Y-63966936D01*
X166419588Y-63963360D01*
G37*
G36*
X166709699Y-64867205D02*
G01*
X166652595Y-64863249D01*
X166610000Y-64854896D01*
X166610000Y-64713772D01*
X166647564Y-64721588D01*
X166689525Y-64724958D01*
X166717679Y-64722086D01*
X166742721Y-64713723D01*
X166763527Y-64698181D01*
X166780237Y-64671176D01*
X166789853Y-64636244D01*
X166793719Y-64581588D01*
X166793719Y-63832300D01*
X166962833Y-63832300D01*
X166962833Y-64580464D01*
X166958787Y-64648781D01*
X166947723Y-64703403D01*
X166930886Y-64746794D01*
X166906242Y-64785865D01*
X166876686Y-64816111D01*
X166841835Y-64838629D01*
X166802816Y-64854188D01*
X166759054Y-64863844D01*
X166709699Y-64867205D01*
G37*
G36*
X167158569Y-64632000D02*
G01*
X167158569Y-63832300D01*
X167329930Y-63832300D01*
X167329930Y-64490876D01*
X167653600Y-64490876D01*
X167653600Y-64632000D01*
X167158569Y-64632000D01*
G37*
G36*
X168112484Y-63963360D02*
G01*
X168065846Y-63968099D01*
X168025852Y-63981690D01*
X167991114Y-64003933D01*
X167960760Y-64035607D01*
X167937700Y-64072691D01*
X167920392Y-64117195D01*
X167909292Y-64170537D01*
X167905317Y-64234421D01*
X167909182Y-64298516D01*
X167919914Y-64351461D01*
X167936533Y-64395091D01*
X167958513Y-64430939D01*
X167987630Y-64460870D01*
X168023133Y-64482482D01*
X168066346Y-64496081D01*
X168119225Y-64500939D01*
X168171182Y-64497826D01*
X168220586Y-64488629D01*
X168269130Y-64474731D01*
X168318576Y-64457268D01*
X168318576Y-64602886D01*
X168253926Y-64624774D01*
X168181529Y-64638428D01*
X168100174Y-64643186D01*
X168035790Y-64639620D01*
X167980108Y-64629526D01*
X167931917Y-64613600D01*
X167890174Y-64592237D01*
X167851729Y-64564216D01*
X167818792Y-64531273D01*
X167790966Y-64493038D01*
X167768101Y-64448915D01*
X167746590Y-64386101D01*
X167733078Y-64314689D01*
X167728339Y-64233297D01*
X167733602Y-64153641D01*
X167748739Y-64082755D01*
X167773133Y-64019341D01*
X167798367Y-63975010D01*
X167828457Y-63936276D01*
X167863585Y-63902632D01*
X167904145Y-63873772D01*
X167948011Y-63851417D01*
X167997171Y-63834977D01*
X168052430Y-63824700D01*
X168114731Y-63821113D01*
X168174144Y-63824298D01*
X168235143Y-63834009D01*
X168294798Y-63850423D01*
X168351060Y-63873772D01*
X168295080Y-64010401D01*
X168253801Y-63992747D01*
X168209351Y-63977380D01*
X168162956Y-63966936D01*
X168112484Y-63963360D01*
G37*
X213004819Y-66359523D02*
X213719104Y-66359523D01*
X213719104Y-66359523D02*
X213861961Y-66407142D01*
X213861961Y-66407142D02*
X213957200Y-66502380D01*
X213957200Y-66502380D02*
X214004819Y-66645237D01*
X214004819Y-66645237D02*
X214004819Y-66740475D01*
X214004819Y-65359523D02*
X214004819Y-65930951D01*
X214004819Y-65645237D02*
X213004819Y-65645237D01*
X213004819Y-65645237D02*
X213147676Y-65740475D01*
X213147676Y-65740475D02*
X213242914Y-65835713D01*
X213242914Y-65835713D02*
X213290533Y-65930951D01*
X213004819Y-65026189D02*
X213004819Y-64407142D01*
X213004819Y-64407142D02*
X213385771Y-64740475D01*
X213385771Y-64740475D02*
X213385771Y-64597618D01*
X213385771Y-64597618D02*
X213433390Y-64502380D01*
X213433390Y-64502380D02*
X213481009Y-64454761D01*
X213481009Y-64454761D02*
X213576247Y-64407142D01*
X213576247Y-64407142D02*
X213814342Y-64407142D01*
X213814342Y-64407142D02*
X213909580Y-64454761D01*
X213909580Y-64454761D02*
X213957200Y-64502380D01*
X213957200Y-64502380D02*
X214004819Y-64597618D01*
X214004819Y-64597618D02*
X214004819Y-64883332D01*
X214004819Y-64883332D02*
X213957200Y-64978570D01*
X213957200Y-64978570D02*
X213909580Y-65026189D01*
X214590476Y-75779819D02*
X214590476Y-76494104D01*
X214590476Y-76494104D02*
X214542857Y-76636961D01*
X214542857Y-76636961D02*
X214447619Y-76732200D01*
X214447619Y-76732200D02*
X214304762Y-76779819D01*
X214304762Y-76779819D02*
X214209524Y-76779819D01*
X215590476Y-76779819D02*
X215019048Y-76779819D01*
X215304762Y-76779819D02*
X215304762Y-75779819D01*
X215304762Y-75779819D02*
X215209524Y-75922676D01*
X215209524Y-75922676D02*
X215114286Y-76017914D01*
X215114286Y-76017914D02*
X215019048Y-76065533D01*
X215971429Y-75875057D02*
X216019048Y-75827438D01*
X216019048Y-75827438D02*
X216114286Y-75779819D01*
X216114286Y-75779819D02*
X216352381Y-75779819D01*
X216352381Y-75779819D02*
X216447619Y-75827438D01*
X216447619Y-75827438D02*
X216495238Y-75875057D01*
X216495238Y-75875057D02*
X216542857Y-75970295D01*
X216542857Y-75970295D02*
X216542857Y-76065533D01*
X216542857Y-76065533D02*
X216495238Y-76208390D01*
X216495238Y-76208390D02*
X215923810Y-76779819D01*
X215923810Y-76779819D02*
X216542857Y-76779819D01*
X146949819Y-79448094D02*
X145949819Y-79448094D01*
X145949819Y-79448094D02*
X145949819Y-79067142D01*
X145949819Y-79067142D02*
X145997438Y-78971904D01*
X145997438Y-78971904D02*
X146045057Y-78924285D01*
X146045057Y-78924285D02*
X146140295Y-78876666D01*
X146140295Y-78876666D02*
X146283152Y-78876666D01*
X146283152Y-78876666D02*
X146378390Y-78924285D01*
X146378390Y-78924285D02*
X146426009Y-78971904D01*
X146426009Y-78971904D02*
X146473628Y-79067142D01*
X146473628Y-79067142D02*
X146473628Y-79448094D01*
X146949819Y-77924285D02*
X146949819Y-78495713D01*
X146949819Y-78209999D02*
X145949819Y-78209999D01*
X145949819Y-78209999D02*
X146092676Y-78305237D01*
X146092676Y-78305237D02*
X146187914Y-78400475D01*
X146187914Y-78400475D02*
X146235533Y-78495713D01*
X214662200Y-93833332D02*
X214709819Y-93690475D01*
X214709819Y-93690475D02*
X214709819Y-93452380D01*
X214709819Y-93452380D02*
X214662200Y-93357142D01*
X214662200Y-93357142D02*
X214614580Y-93309523D01*
X214614580Y-93309523D02*
X214519342Y-93261904D01*
X214519342Y-93261904D02*
X214424104Y-93261904D01*
X214424104Y-93261904D02*
X214328866Y-93309523D01*
X214328866Y-93309523D02*
X214281247Y-93357142D01*
X214281247Y-93357142D02*
X214233628Y-93452380D01*
X214233628Y-93452380D02*
X214186009Y-93642856D01*
X214186009Y-93642856D02*
X214138390Y-93738094D01*
X214138390Y-93738094D02*
X214090771Y-93785713D01*
X214090771Y-93785713D02*
X213995533Y-93833332D01*
X213995533Y-93833332D02*
X213900295Y-93833332D01*
X213900295Y-93833332D02*
X213805057Y-93785713D01*
X213805057Y-93785713D02*
X213757438Y-93738094D01*
X213757438Y-93738094D02*
X213709819Y-93642856D01*
X213709819Y-93642856D02*
X213709819Y-93404761D01*
X213709819Y-93404761D02*
X213757438Y-93261904D01*
X213709819Y-92928570D02*
X214709819Y-92690475D01*
X214709819Y-92690475D02*
X213995533Y-92499999D01*
X213995533Y-92499999D02*
X214709819Y-92309523D01*
X214709819Y-92309523D02*
X213709819Y-92071428D01*
X214709819Y-91166666D02*
X214709819Y-91738094D01*
X214709819Y-91452380D02*
X213709819Y-91452380D01*
X213709819Y-91452380D02*
X213852676Y-91547618D01*
X213852676Y-91547618D02*
X213947914Y-91642856D01*
X213947914Y-91642856D02*
X213995533Y-91738094D01*
X187234819Y-102033333D02*
X187949104Y-102033333D01*
X187949104Y-102033333D02*
X188091961Y-102080952D01*
X188091961Y-102080952D02*
X188187200Y-102176190D01*
X188187200Y-102176190D02*
X188234819Y-102319047D01*
X188234819Y-102319047D02*
X188234819Y-102414285D01*
X188234819Y-101509523D02*
X188234819Y-101319047D01*
X188234819Y-101319047D02*
X188187200Y-101223809D01*
X188187200Y-101223809D02*
X188139580Y-101176190D01*
X188139580Y-101176190D02*
X187996723Y-101080952D01*
X187996723Y-101080952D02*
X187806247Y-101033333D01*
X187806247Y-101033333D02*
X187425295Y-101033333D01*
X187425295Y-101033333D02*
X187330057Y-101080952D01*
X187330057Y-101080952D02*
X187282438Y-101128571D01*
X187282438Y-101128571D02*
X187234819Y-101223809D01*
X187234819Y-101223809D02*
X187234819Y-101414285D01*
X187234819Y-101414285D02*
X187282438Y-101509523D01*
X187282438Y-101509523D02*
X187330057Y-101557142D01*
X187330057Y-101557142D02*
X187425295Y-101604761D01*
X187425295Y-101604761D02*
X187663390Y-101604761D01*
X187663390Y-101604761D02*
X187758628Y-101557142D01*
X187758628Y-101557142D02*
X187806247Y-101509523D01*
X187806247Y-101509523D02*
X187853866Y-101414285D01*
X187853866Y-101414285D02*
X187853866Y-101223809D01*
X187853866Y-101223809D02*
X187806247Y-101128571D01*
X187806247Y-101128571D02*
X187758628Y-101080952D01*
X187758628Y-101080952D02*
X187663390Y-101033333D01*
X148922142Y-92204819D02*
X148588809Y-91728628D01*
X148350714Y-92204819D02*
X148350714Y-91204819D01*
X148350714Y-91204819D02*
X148731666Y-91204819D01*
X148731666Y-91204819D02*
X148826904Y-91252438D01*
X148826904Y-91252438D02*
X148874523Y-91300057D01*
X148874523Y-91300057D02*
X148922142Y-91395295D01*
X148922142Y-91395295D02*
X148922142Y-91538152D01*
X148922142Y-91538152D02*
X148874523Y-91633390D01*
X148874523Y-91633390D02*
X148826904Y-91681009D01*
X148826904Y-91681009D02*
X148731666Y-91728628D01*
X148731666Y-91728628D02*
X148350714Y-91728628D01*
X149874523Y-92204819D02*
X149303095Y-92204819D01*
X149588809Y-92204819D02*
X149588809Y-91204819D01*
X149588809Y-91204819D02*
X149493571Y-91347676D01*
X149493571Y-91347676D02*
X149398333Y-91442914D01*
X149398333Y-91442914D02*
X149303095Y-91490533D01*
X150826904Y-92204819D02*
X150255476Y-92204819D01*
X150541190Y-92204819D02*
X150541190Y-91204819D01*
X150541190Y-91204819D02*
X150445952Y-91347676D01*
X150445952Y-91347676D02*
X150350714Y-91442914D01*
X150350714Y-91442914D02*
X150255476Y-91490533D01*
X212566666Y-68779819D02*
X212566666Y-69494104D01*
X212566666Y-69494104D02*
X212519047Y-69636961D01*
X212519047Y-69636961D02*
X212423809Y-69732200D01*
X212423809Y-69732200D02*
X212280952Y-69779819D01*
X212280952Y-69779819D02*
X212185714Y-69779819D01*
X212947619Y-68779819D02*
X213614285Y-68779819D01*
X213614285Y-68779819D02*
X213185714Y-69779819D01*
X206350057Y-65315238D02*
X206302438Y-65410476D01*
X206302438Y-65410476D02*
X206207200Y-65505714D01*
X206207200Y-65505714D02*
X206064342Y-65648571D01*
X206064342Y-65648571D02*
X206016723Y-65743809D01*
X206016723Y-65743809D02*
X206016723Y-65839047D01*
X206254819Y-65791428D02*
X206207200Y-65886666D01*
X206207200Y-65886666D02*
X206111961Y-65981904D01*
X206111961Y-65981904D02*
X205921485Y-66029523D01*
X205921485Y-66029523D02*
X205588152Y-66029523D01*
X205588152Y-66029523D02*
X205397676Y-65981904D01*
X205397676Y-65981904D02*
X205302438Y-65886666D01*
X205302438Y-65886666D02*
X205254819Y-65791428D01*
X205254819Y-65791428D02*
X205254819Y-65600952D01*
X205254819Y-65600952D02*
X205302438Y-65505714D01*
X205302438Y-65505714D02*
X205397676Y-65410476D01*
X205397676Y-65410476D02*
X205588152Y-65362857D01*
X205588152Y-65362857D02*
X205921485Y-65362857D01*
X205921485Y-65362857D02*
X206111961Y-65410476D01*
X206111961Y-65410476D02*
X206207200Y-65505714D01*
X206207200Y-65505714D02*
X206254819Y-65600952D01*
X206254819Y-65600952D02*
X206254819Y-65791428D01*
X206254819Y-64410476D02*
X206254819Y-64981904D01*
X206254819Y-64696190D02*
X205254819Y-64696190D01*
X205254819Y-64696190D02*
X205397676Y-64791428D01*
X205397676Y-64791428D02*
X205492914Y-64886666D01*
X205492914Y-64886666D02*
X205540533Y-64981904D01*
X137857142Y-75039580D02*
X137809523Y-75087200D01*
X137809523Y-75087200D02*
X137666666Y-75134819D01*
X137666666Y-75134819D02*
X137571428Y-75134819D01*
X137571428Y-75134819D02*
X137428571Y-75087200D01*
X137428571Y-75087200D02*
X137333333Y-74991961D01*
X137333333Y-74991961D02*
X137285714Y-74896723D01*
X137285714Y-74896723D02*
X137238095Y-74706247D01*
X137238095Y-74706247D02*
X137238095Y-74563390D01*
X137238095Y-74563390D02*
X137285714Y-74372914D01*
X137285714Y-74372914D02*
X137333333Y-74277676D01*
X137333333Y-74277676D02*
X137428571Y-74182438D01*
X137428571Y-74182438D02*
X137571428Y-74134819D01*
X137571428Y-74134819D02*
X137666666Y-74134819D01*
X137666666Y-74134819D02*
X137809523Y-74182438D01*
X137809523Y-74182438D02*
X137857142Y-74230057D01*
X138238095Y-74230057D02*
X138285714Y-74182438D01*
X138285714Y-74182438D02*
X138380952Y-74134819D01*
X138380952Y-74134819D02*
X138619047Y-74134819D01*
X138619047Y-74134819D02*
X138714285Y-74182438D01*
X138714285Y-74182438D02*
X138761904Y-74230057D01*
X138761904Y-74230057D02*
X138809523Y-74325295D01*
X138809523Y-74325295D02*
X138809523Y-74420533D01*
X138809523Y-74420533D02*
X138761904Y-74563390D01*
X138761904Y-74563390D02*
X138190476Y-75134819D01*
X138190476Y-75134819D02*
X138809523Y-75134819D01*
X139142857Y-74134819D02*
X139761904Y-74134819D01*
X139761904Y-74134819D02*
X139428571Y-74515771D01*
X139428571Y-74515771D02*
X139571428Y-74515771D01*
X139571428Y-74515771D02*
X139666666Y-74563390D01*
X139666666Y-74563390D02*
X139714285Y-74611009D01*
X139714285Y-74611009D02*
X139761904Y-74706247D01*
X139761904Y-74706247D02*
X139761904Y-74944342D01*
X139761904Y-74944342D02*
X139714285Y-75039580D01*
X139714285Y-75039580D02*
X139666666Y-75087200D01*
X139666666Y-75087200D02*
X139571428Y-75134819D01*
X139571428Y-75134819D02*
X139285714Y-75134819D01*
X139285714Y-75134819D02*
X139190476Y-75087200D01*
X139190476Y-75087200D02*
X139142857Y-75039580D01*
X150202142Y-86409580D02*
X150154523Y-86457200D01*
X150154523Y-86457200D02*
X150011666Y-86504819D01*
X150011666Y-86504819D02*
X149916428Y-86504819D01*
X149916428Y-86504819D02*
X149773571Y-86457200D01*
X149773571Y-86457200D02*
X149678333Y-86361961D01*
X149678333Y-86361961D02*
X149630714Y-86266723D01*
X149630714Y-86266723D02*
X149583095Y-86076247D01*
X149583095Y-86076247D02*
X149583095Y-85933390D01*
X149583095Y-85933390D02*
X149630714Y-85742914D01*
X149630714Y-85742914D02*
X149678333Y-85647676D01*
X149678333Y-85647676D02*
X149773571Y-85552438D01*
X149773571Y-85552438D02*
X149916428Y-85504819D01*
X149916428Y-85504819D02*
X150011666Y-85504819D01*
X150011666Y-85504819D02*
X150154523Y-85552438D01*
X150154523Y-85552438D02*
X150202142Y-85600057D01*
X150583095Y-85600057D02*
X150630714Y-85552438D01*
X150630714Y-85552438D02*
X150725952Y-85504819D01*
X150725952Y-85504819D02*
X150964047Y-85504819D01*
X150964047Y-85504819D02*
X151059285Y-85552438D01*
X151059285Y-85552438D02*
X151106904Y-85600057D01*
X151106904Y-85600057D02*
X151154523Y-85695295D01*
X151154523Y-85695295D02*
X151154523Y-85790533D01*
X151154523Y-85790533D02*
X151106904Y-85933390D01*
X151106904Y-85933390D02*
X150535476Y-86504819D01*
X150535476Y-86504819D02*
X151154523Y-86504819D01*
X151773571Y-85504819D02*
X151868809Y-85504819D01*
X151868809Y-85504819D02*
X151964047Y-85552438D01*
X151964047Y-85552438D02*
X152011666Y-85600057D01*
X152011666Y-85600057D02*
X152059285Y-85695295D01*
X152059285Y-85695295D02*
X152106904Y-85885771D01*
X152106904Y-85885771D02*
X152106904Y-86123866D01*
X152106904Y-86123866D02*
X152059285Y-86314342D01*
X152059285Y-86314342D02*
X152011666Y-86409580D01*
X152011666Y-86409580D02*
X151964047Y-86457200D01*
X151964047Y-86457200D02*
X151868809Y-86504819D01*
X151868809Y-86504819D02*
X151773571Y-86504819D01*
X151773571Y-86504819D02*
X151678333Y-86457200D01*
X151678333Y-86457200D02*
X151630714Y-86409580D01*
X151630714Y-86409580D02*
X151583095Y-86314342D01*
X151583095Y-86314342D02*
X151535476Y-86123866D01*
X151535476Y-86123866D02*
X151535476Y-85885771D01*
X151535476Y-85885771D02*
X151583095Y-85695295D01*
X151583095Y-85695295D02*
X151630714Y-85600057D01*
X151630714Y-85600057D02*
X151678333Y-85552438D01*
X151678333Y-85552438D02*
X151773571Y-85504819D01*
X149847142Y-70219580D02*
X149799523Y-70267200D01*
X149799523Y-70267200D02*
X149656666Y-70314819D01*
X149656666Y-70314819D02*
X149561428Y-70314819D01*
X149561428Y-70314819D02*
X149418571Y-70267200D01*
X149418571Y-70267200D02*
X149323333Y-70171961D01*
X149323333Y-70171961D02*
X149275714Y-70076723D01*
X149275714Y-70076723D02*
X149228095Y-69886247D01*
X149228095Y-69886247D02*
X149228095Y-69743390D01*
X149228095Y-69743390D02*
X149275714Y-69552914D01*
X149275714Y-69552914D02*
X149323333Y-69457676D01*
X149323333Y-69457676D02*
X149418571Y-69362438D01*
X149418571Y-69362438D02*
X149561428Y-69314819D01*
X149561428Y-69314819D02*
X149656666Y-69314819D01*
X149656666Y-69314819D02*
X149799523Y-69362438D01*
X149799523Y-69362438D02*
X149847142Y-69410057D01*
X150228095Y-69410057D02*
X150275714Y-69362438D01*
X150275714Y-69362438D02*
X150370952Y-69314819D01*
X150370952Y-69314819D02*
X150609047Y-69314819D01*
X150609047Y-69314819D02*
X150704285Y-69362438D01*
X150704285Y-69362438D02*
X150751904Y-69410057D01*
X150751904Y-69410057D02*
X150799523Y-69505295D01*
X150799523Y-69505295D02*
X150799523Y-69600533D01*
X150799523Y-69600533D02*
X150751904Y-69743390D01*
X150751904Y-69743390D02*
X150180476Y-70314819D01*
X150180476Y-70314819D02*
X150799523Y-70314819D01*
X151751904Y-70314819D02*
X151180476Y-70314819D01*
X151466190Y-70314819D02*
X151466190Y-69314819D01*
X151466190Y-69314819D02*
X151370952Y-69457676D01*
X151370952Y-69457676D02*
X151275714Y-69552914D01*
X151275714Y-69552914D02*
X151180476Y-69600533D01*
X208631009Y-76858333D02*
X208631009Y-77191666D01*
X209154819Y-77191666D02*
X208154819Y-77191666D01*
X208154819Y-77191666D02*
X208154819Y-76715476D01*
X208631009Y-76001190D02*
X208678628Y-75858333D01*
X208678628Y-75858333D02*
X208726247Y-75810714D01*
X208726247Y-75810714D02*
X208821485Y-75763095D01*
X208821485Y-75763095D02*
X208964342Y-75763095D01*
X208964342Y-75763095D02*
X209059580Y-75810714D01*
X209059580Y-75810714D02*
X209107200Y-75858333D01*
X209107200Y-75858333D02*
X209154819Y-75953571D01*
X209154819Y-75953571D02*
X209154819Y-76334523D01*
X209154819Y-76334523D02*
X208154819Y-76334523D01*
X208154819Y-76334523D02*
X208154819Y-76001190D01*
X208154819Y-76001190D02*
X208202438Y-75905952D01*
X208202438Y-75905952D02*
X208250057Y-75858333D01*
X208250057Y-75858333D02*
X208345295Y-75810714D01*
X208345295Y-75810714D02*
X208440533Y-75810714D01*
X208440533Y-75810714D02*
X208535771Y-75858333D01*
X208535771Y-75858333D02*
X208583390Y-75905952D01*
X208583390Y-75905952D02*
X208631009Y-76001190D01*
X208631009Y-76001190D02*
X208631009Y-76334523D01*
X209154819Y-74810714D02*
X209154819Y-75382142D01*
X209154819Y-75096428D02*
X208154819Y-75096428D01*
X208154819Y-75096428D02*
X208297676Y-75191666D01*
X208297676Y-75191666D02*
X208392914Y-75286904D01*
X208392914Y-75286904D02*
X208440533Y-75382142D01*
X193854819Y-87411904D02*
X194664342Y-87411904D01*
X194664342Y-87411904D02*
X194759580Y-87364285D01*
X194759580Y-87364285D02*
X194807200Y-87316666D01*
X194807200Y-87316666D02*
X194854819Y-87221428D01*
X194854819Y-87221428D02*
X194854819Y-87030952D01*
X194854819Y-87030952D02*
X194807200Y-86935714D01*
X194807200Y-86935714D02*
X194759580Y-86888095D01*
X194759580Y-86888095D02*
X194664342Y-86840476D01*
X194664342Y-86840476D02*
X193854819Y-86840476D01*
X193854819Y-86459523D02*
X193854819Y-85840476D01*
X193854819Y-85840476D02*
X194235771Y-86173809D01*
X194235771Y-86173809D02*
X194235771Y-86030952D01*
X194235771Y-86030952D02*
X194283390Y-85935714D01*
X194283390Y-85935714D02*
X194331009Y-85888095D01*
X194331009Y-85888095D02*
X194426247Y-85840476D01*
X194426247Y-85840476D02*
X194664342Y-85840476D01*
X194664342Y-85840476D02*
X194759580Y-85888095D01*
X194759580Y-85888095D02*
X194807200Y-85935714D01*
X194807200Y-85935714D02*
X194854819Y-86030952D01*
X194854819Y-86030952D02*
X194854819Y-86316666D01*
X194854819Y-86316666D02*
X194807200Y-86411904D01*
X194807200Y-86411904D02*
X194759580Y-86459523D01*
X191133333Y-57209580D02*
X191085714Y-57257200D01*
X191085714Y-57257200D02*
X190942857Y-57304819D01*
X190942857Y-57304819D02*
X190847619Y-57304819D01*
X190847619Y-57304819D02*
X190704762Y-57257200D01*
X190704762Y-57257200D02*
X190609524Y-57161961D01*
X190609524Y-57161961D02*
X190561905Y-57066723D01*
X190561905Y-57066723D02*
X190514286Y-56876247D01*
X190514286Y-56876247D02*
X190514286Y-56733390D01*
X190514286Y-56733390D02*
X190561905Y-56542914D01*
X190561905Y-56542914D02*
X190609524Y-56447676D01*
X190609524Y-56447676D02*
X190704762Y-56352438D01*
X190704762Y-56352438D02*
X190847619Y-56304819D01*
X190847619Y-56304819D02*
X190942857Y-56304819D01*
X190942857Y-56304819D02*
X191085714Y-56352438D01*
X191085714Y-56352438D02*
X191133333Y-56400057D01*
X191514286Y-56400057D02*
X191561905Y-56352438D01*
X191561905Y-56352438D02*
X191657143Y-56304819D01*
X191657143Y-56304819D02*
X191895238Y-56304819D01*
X191895238Y-56304819D02*
X191990476Y-56352438D01*
X191990476Y-56352438D02*
X192038095Y-56400057D01*
X192038095Y-56400057D02*
X192085714Y-56495295D01*
X192085714Y-56495295D02*
X192085714Y-56590533D01*
X192085714Y-56590533D02*
X192038095Y-56733390D01*
X192038095Y-56733390D02*
X191466667Y-57304819D01*
X191466667Y-57304819D02*
X192085714Y-57304819D01*
X137327142Y-90249580D02*
X137279523Y-90297200D01*
X137279523Y-90297200D02*
X137136666Y-90344819D01*
X137136666Y-90344819D02*
X137041428Y-90344819D01*
X137041428Y-90344819D02*
X136898571Y-90297200D01*
X136898571Y-90297200D02*
X136803333Y-90201961D01*
X136803333Y-90201961D02*
X136755714Y-90106723D01*
X136755714Y-90106723D02*
X136708095Y-89916247D01*
X136708095Y-89916247D02*
X136708095Y-89773390D01*
X136708095Y-89773390D02*
X136755714Y-89582914D01*
X136755714Y-89582914D02*
X136803333Y-89487676D01*
X136803333Y-89487676D02*
X136898571Y-89392438D01*
X136898571Y-89392438D02*
X137041428Y-89344819D01*
X137041428Y-89344819D02*
X137136666Y-89344819D01*
X137136666Y-89344819D02*
X137279523Y-89392438D01*
X137279523Y-89392438D02*
X137327142Y-89440057D01*
X138279523Y-90344819D02*
X137708095Y-90344819D01*
X137993809Y-90344819D02*
X137993809Y-89344819D01*
X137993809Y-89344819D02*
X137898571Y-89487676D01*
X137898571Y-89487676D02*
X137803333Y-89582914D01*
X137803333Y-89582914D02*
X137708095Y-89630533D01*
X138755714Y-90344819D02*
X138946190Y-90344819D01*
X138946190Y-90344819D02*
X139041428Y-90297200D01*
X139041428Y-90297200D02*
X139089047Y-90249580D01*
X139089047Y-90249580D02*
X139184285Y-90106723D01*
X139184285Y-90106723D02*
X139231904Y-89916247D01*
X139231904Y-89916247D02*
X139231904Y-89535295D01*
X139231904Y-89535295D02*
X139184285Y-89440057D01*
X139184285Y-89440057D02*
X139136666Y-89392438D01*
X139136666Y-89392438D02*
X139041428Y-89344819D01*
X139041428Y-89344819D02*
X138850952Y-89344819D01*
X138850952Y-89344819D02*
X138755714Y-89392438D01*
X138755714Y-89392438D02*
X138708095Y-89440057D01*
X138708095Y-89440057D02*
X138660476Y-89535295D01*
X138660476Y-89535295D02*
X138660476Y-89773390D01*
X138660476Y-89773390D02*
X138708095Y-89868628D01*
X138708095Y-89868628D02*
X138755714Y-89916247D01*
X138755714Y-89916247D02*
X138850952Y-89963866D01*
X138850952Y-89963866D02*
X139041428Y-89963866D01*
X139041428Y-89963866D02*
X139136666Y-89916247D01*
X139136666Y-89916247D02*
X139184285Y-89868628D01*
X139184285Y-89868628D02*
X139231904Y-89773390D01*
X141442142Y-87509580D02*
X141394523Y-87557200D01*
X141394523Y-87557200D02*
X141251666Y-87604819D01*
X141251666Y-87604819D02*
X141156428Y-87604819D01*
X141156428Y-87604819D02*
X141013571Y-87557200D01*
X141013571Y-87557200D02*
X140918333Y-87461961D01*
X140918333Y-87461961D02*
X140870714Y-87366723D01*
X140870714Y-87366723D02*
X140823095Y-87176247D01*
X140823095Y-87176247D02*
X140823095Y-87033390D01*
X140823095Y-87033390D02*
X140870714Y-86842914D01*
X140870714Y-86842914D02*
X140918333Y-86747676D01*
X140918333Y-86747676D02*
X141013571Y-86652438D01*
X141013571Y-86652438D02*
X141156428Y-86604819D01*
X141156428Y-86604819D02*
X141251666Y-86604819D01*
X141251666Y-86604819D02*
X141394523Y-86652438D01*
X141394523Y-86652438D02*
X141442142Y-86700057D01*
X141823095Y-86700057D02*
X141870714Y-86652438D01*
X141870714Y-86652438D02*
X141965952Y-86604819D01*
X141965952Y-86604819D02*
X142204047Y-86604819D01*
X142204047Y-86604819D02*
X142299285Y-86652438D01*
X142299285Y-86652438D02*
X142346904Y-86700057D01*
X142346904Y-86700057D02*
X142394523Y-86795295D01*
X142394523Y-86795295D02*
X142394523Y-86890533D01*
X142394523Y-86890533D02*
X142346904Y-87033390D01*
X142346904Y-87033390D02*
X141775476Y-87604819D01*
X141775476Y-87604819D02*
X142394523Y-87604819D01*
X143251666Y-86938152D02*
X143251666Y-87604819D01*
X143013571Y-86557200D02*
X142775476Y-87271485D01*
X142775476Y-87271485D02*
X143394523Y-87271485D01*
X137327142Y-86309580D02*
X137279523Y-86357200D01*
X137279523Y-86357200D02*
X137136666Y-86404819D01*
X137136666Y-86404819D02*
X137041428Y-86404819D01*
X137041428Y-86404819D02*
X136898571Y-86357200D01*
X136898571Y-86357200D02*
X136803333Y-86261961D01*
X136803333Y-86261961D02*
X136755714Y-86166723D01*
X136755714Y-86166723D02*
X136708095Y-85976247D01*
X136708095Y-85976247D02*
X136708095Y-85833390D01*
X136708095Y-85833390D02*
X136755714Y-85642914D01*
X136755714Y-85642914D02*
X136803333Y-85547676D01*
X136803333Y-85547676D02*
X136898571Y-85452438D01*
X136898571Y-85452438D02*
X137041428Y-85404819D01*
X137041428Y-85404819D02*
X137136666Y-85404819D01*
X137136666Y-85404819D02*
X137279523Y-85452438D01*
X137279523Y-85452438D02*
X137327142Y-85500057D01*
X138279523Y-86404819D02*
X137708095Y-86404819D01*
X137993809Y-86404819D02*
X137993809Y-85404819D01*
X137993809Y-85404819D02*
X137898571Y-85547676D01*
X137898571Y-85547676D02*
X137803333Y-85642914D01*
X137803333Y-85642914D02*
X137708095Y-85690533D01*
X139136666Y-85404819D02*
X138946190Y-85404819D01*
X138946190Y-85404819D02*
X138850952Y-85452438D01*
X138850952Y-85452438D02*
X138803333Y-85500057D01*
X138803333Y-85500057D02*
X138708095Y-85642914D01*
X138708095Y-85642914D02*
X138660476Y-85833390D01*
X138660476Y-85833390D02*
X138660476Y-86214342D01*
X138660476Y-86214342D02*
X138708095Y-86309580D01*
X138708095Y-86309580D02*
X138755714Y-86357200D01*
X138755714Y-86357200D02*
X138850952Y-86404819D01*
X138850952Y-86404819D02*
X139041428Y-86404819D01*
X139041428Y-86404819D02*
X139136666Y-86357200D01*
X139136666Y-86357200D02*
X139184285Y-86309580D01*
X139184285Y-86309580D02*
X139231904Y-86214342D01*
X139231904Y-86214342D02*
X139231904Y-85976247D01*
X139231904Y-85976247D02*
X139184285Y-85881009D01*
X139184285Y-85881009D02*
X139136666Y-85833390D01*
X139136666Y-85833390D02*
X139041428Y-85785771D01*
X139041428Y-85785771D02*
X138850952Y-85785771D01*
X138850952Y-85785771D02*
X138755714Y-85833390D01*
X138755714Y-85833390D02*
X138708095Y-85881009D01*
X138708095Y-85881009D02*
X138660476Y-85976247D01*
X176838095Y-80554819D02*
X176838095Y-81364342D01*
X176838095Y-81364342D02*
X176885714Y-81459580D01*
X176885714Y-81459580D02*
X176933333Y-81507200D01*
X176933333Y-81507200D02*
X177028571Y-81554819D01*
X177028571Y-81554819D02*
X177219047Y-81554819D01*
X177219047Y-81554819D02*
X177314285Y-81507200D01*
X177314285Y-81507200D02*
X177361904Y-81459580D01*
X177361904Y-81459580D02*
X177409523Y-81364342D01*
X177409523Y-81364342D02*
X177409523Y-80554819D01*
X178409523Y-81554819D02*
X177838095Y-81554819D01*
X178123809Y-81554819D02*
X178123809Y-80554819D01*
X178123809Y-80554819D02*
X178028571Y-80697676D01*
X178028571Y-80697676D02*
X177933333Y-80792914D01*
X177933333Y-80792914D02*
X177838095Y-80840533D01*
X137327142Y-88279580D02*
X137279523Y-88327200D01*
X137279523Y-88327200D02*
X137136666Y-88374819D01*
X137136666Y-88374819D02*
X137041428Y-88374819D01*
X137041428Y-88374819D02*
X136898571Y-88327200D01*
X136898571Y-88327200D02*
X136803333Y-88231961D01*
X136803333Y-88231961D02*
X136755714Y-88136723D01*
X136755714Y-88136723D02*
X136708095Y-87946247D01*
X136708095Y-87946247D02*
X136708095Y-87803390D01*
X136708095Y-87803390D02*
X136755714Y-87612914D01*
X136755714Y-87612914D02*
X136803333Y-87517676D01*
X136803333Y-87517676D02*
X136898571Y-87422438D01*
X136898571Y-87422438D02*
X137041428Y-87374819D01*
X137041428Y-87374819D02*
X137136666Y-87374819D01*
X137136666Y-87374819D02*
X137279523Y-87422438D01*
X137279523Y-87422438D02*
X137327142Y-87470057D01*
X138279523Y-88374819D02*
X137708095Y-88374819D01*
X137993809Y-88374819D02*
X137993809Y-87374819D01*
X137993809Y-87374819D02*
X137898571Y-87517676D01*
X137898571Y-87517676D02*
X137803333Y-87612914D01*
X137803333Y-87612914D02*
X137708095Y-87660533D01*
X138612857Y-87374819D02*
X139279523Y-87374819D01*
X139279523Y-87374819D02*
X138850952Y-88374819D01*
X190590476Y-94504819D02*
X190590476Y-95219104D01*
X190590476Y-95219104D02*
X190542857Y-95361961D01*
X190542857Y-95361961D02*
X190447619Y-95457200D01*
X190447619Y-95457200D02*
X190304762Y-95504819D01*
X190304762Y-95504819D02*
X190209524Y-95504819D01*
X191590476Y-95504819D02*
X191019048Y-95504819D01*
X191304762Y-95504819D02*
X191304762Y-94504819D01*
X191304762Y-94504819D02*
X191209524Y-94647676D01*
X191209524Y-94647676D02*
X191114286Y-94742914D01*
X191114286Y-94742914D02*
X191019048Y-94790533D01*
X192209524Y-94504819D02*
X192304762Y-94504819D01*
X192304762Y-94504819D02*
X192400000Y-94552438D01*
X192400000Y-94552438D02*
X192447619Y-94600057D01*
X192447619Y-94600057D02*
X192495238Y-94695295D01*
X192495238Y-94695295D02*
X192542857Y-94885771D01*
X192542857Y-94885771D02*
X192542857Y-95123866D01*
X192542857Y-95123866D02*
X192495238Y-95314342D01*
X192495238Y-95314342D02*
X192447619Y-95409580D01*
X192447619Y-95409580D02*
X192400000Y-95457200D01*
X192400000Y-95457200D02*
X192304762Y-95504819D01*
X192304762Y-95504819D02*
X192209524Y-95504819D01*
X192209524Y-95504819D02*
X192114286Y-95457200D01*
X192114286Y-95457200D02*
X192066667Y-95409580D01*
X192066667Y-95409580D02*
X192019048Y-95314342D01*
X192019048Y-95314342D02*
X191971429Y-95123866D01*
X191971429Y-95123866D02*
X191971429Y-94885771D01*
X191971429Y-94885771D02*
X192019048Y-94695295D01*
X192019048Y-94695295D02*
X192066667Y-94600057D01*
X192066667Y-94600057D02*
X192114286Y-94552438D01*
X192114286Y-94552438D02*
X192209524Y-94504819D01*
X140957142Y-72019580D02*
X140909523Y-72067200D01*
X140909523Y-72067200D02*
X140766666Y-72114819D01*
X140766666Y-72114819D02*
X140671428Y-72114819D01*
X140671428Y-72114819D02*
X140528571Y-72067200D01*
X140528571Y-72067200D02*
X140433333Y-71971961D01*
X140433333Y-71971961D02*
X140385714Y-71876723D01*
X140385714Y-71876723D02*
X140338095Y-71686247D01*
X140338095Y-71686247D02*
X140338095Y-71543390D01*
X140338095Y-71543390D02*
X140385714Y-71352914D01*
X140385714Y-71352914D02*
X140433333Y-71257676D01*
X140433333Y-71257676D02*
X140528571Y-71162438D01*
X140528571Y-71162438D02*
X140671428Y-71114819D01*
X140671428Y-71114819D02*
X140766666Y-71114819D01*
X140766666Y-71114819D02*
X140909523Y-71162438D01*
X140909523Y-71162438D02*
X140957142Y-71210057D01*
X141338095Y-71210057D02*
X141385714Y-71162438D01*
X141385714Y-71162438D02*
X141480952Y-71114819D01*
X141480952Y-71114819D02*
X141719047Y-71114819D01*
X141719047Y-71114819D02*
X141814285Y-71162438D01*
X141814285Y-71162438D02*
X141861904Y-71210057D01*
X141861904Y-71210057D02*
X141909523Y-71305295D01*
X141909523Y-71305295D02*
X141909523Y-71400533D01*
X141909523Y-71400533D02*
X141861904Y-71543390D01*
X141861904Y-71543390D02*
X141290476Y-72114819D01*
X141290476Y-72114819D02*
X141909523Y-72114819D01*
X142290476Y-71210057D02*
X142338095Y-71162438D01*
X142338095Y-71162438D02*
X142433333Y-71114819D01*
X142433333Y-71114819D02*
X142671428Y-71114819D01*
X142671428Y-71114819D02*
X142766666Y-71162438D01*
X142766666Y-71162438D02*
X142814285Y-71210057D01*
X142814285Y-71210057D02*
X142861904Y-71305295D01*
X142861904Y-71305295D02*
X142861904Y-71400533D01*
X142861904Y-71400533D02*
X142814285Y-71543390D01*
X142814285Y-71543390D02*
X142242857Y-72114819D01*
X142242857Y-72114819D02*
X142861904Y-72114819D01*
D13*
X140238095Y-62157419D02*
X140238095Y-61157419D01*
X140238095Y-61633609D02*
X140809523Y-61633609D01*
X140809523Y-62157419D02*
X140809523Y-61157419D01*
X141190476Y-61157419D02*
X141809523Y-61157419D01*
X141809523Y-61157419D02*
X141476190Y-61538371D01*
X141476190Y-61538371D02*
X141619047Y-61538371D01*
X141619047Y-61538371D02*
X141714285Y-61585990D01*
X141714285Y-61585990D02*
X141761904Y-61633609D01*
X141761904Y-61633609D02*
X141809523Y-61728847D01*
X141809523Y-61728847D02*
X141809523Y-61966942D01*
X141809523Y-61966942D02*
X141761904Y-62062180D01*
X141761904Y-62062180D02*
X141714285Y-62109800D01*
X141714285Y-62109800D02*
X141619047Y-62157419D01*
X141619047Y-62157419D02*
X141333333Y-62157419D01*
X141333333Y-62157419D02*
X141238095Y-62109800D01*
X141238095Y-62109800D02*
X141190476Y-62062180D01*
D12*
X168270833Y-77874819D02*
X167937500Y-77398628D01*
X167699405Y-77874819D02*
X167699405Y-76874819D01*
X167699405Y-76874819D02*
X168080357Y-76874819D01*
X168080357Y-76874819D02*
X168175595Y-76922438D01*
X168175595Y-76922438D02*
X168223214Y-76970057D01*
X168223214Y-76970057D02*
X168270833Y-77065295D01*
X168270833Y-77065295D02*
X168270833Y-77208152D01*
X168270833Y-77208152D02*
X168223214Y-77303390D01*
X168223214Y-77303390D02*
X168175595Y-77351009D01*
X168175595Y-77351009D02*
X168080357Y-77398628D01*
X168080357Y-77398628D02*
X167699405Y-77398628D01*
X168747024Y-77874819D02*
X168937500Y-77874819D01*
X168937500Y-77874819D02*
X169032738Y-77827200D01*
X169032738Y-77827200D02*
X169080357Y-77779580D01*
X169080357Y-77779580D02*
X169175595Y-77636723D01*
X169175595Y-77636723D02*
X169223214Y-77446247D01*
X169223214Y-77446247D02*
X169223214Y-77065295D01*
X169223214Y-77065295D02*
X169175595Y-76970057D01*
X169175595Y-76970057D02*
X169127976Y-76922438D01*
X169127976Y-76922438D02*
X169032738Y-76874819D01*
X169032738Y-76874819D02*
X168842262Y-76874819D01*
X168842262Y-76874819D02*
X168747024Y-76922438D01*
X168747024Y-76922438D02*
X168699405Y-76970057D01*
X168699405Y-76970057D02*
X168651786Y-77065295D01*
X168651786Y-77065295D02*
X168651786Y-77303390D01*
X168651786Y-77303390D02*
X168699405Y-77398628D01*
X168699405Y-77398628D02*
X168747024Y-77446247D01*
X168747024Y-77446247D02*
X168842262Y-77493866D01*
X168842262Y-77493866D02*
X169032738Y-77493866D01*
X169032738Y-77493866D02*
X169127976Y-77446247D01*
X169127976Y-77446247D02*
X169175595Y-77398628D01*
X169175595Y-77398628D02*
X169223214Y-77303390D01*
X144882142Y-87329580D02*
X144834523Y-87377200D01*
X144834523Y-87377200D02*
X144691666Y-87424819D01*
X144691666Y-87424819D02*
X144596428Y-87424819D01*
X144596428Y-87424819D02*
X144453571Y-87377200D01*
X144453571Y-87377200D02*
X144358333Y-87281961D01*
X144358333Y-87281961D02*
X144310714Y-87186723D01*
X144310714Y-87186723D02*
X144263095Y-86996247D01*
X144263095Y-86996247D02*
X144263095Y-86853390D01*
X144263095Y-86853390D02*
X144310714Y-86662914D01*
X144310714Y-86662914D02*
X144358333Y-86567676D01*
X144358333Y-86567676D02*
X144453571Y-86472438D01*
X144453571Y-86472438D02*
X144596428Y-86424819D01*
X144596428Y-86424819D02*
X144691666Y-86424819D01*
X144691666Y-86424819D02*
X144834523Y-86472438D01*
X144834523Y-86472438D02*
X144882142Y-86520057D01*
X145834523Y-87424819D02*
X145263095Y-87424819D01*
X145548809Y-87424819D02*
X145548809Y-86424819D01*
X145548809Y-86424819D02*
X145453571Y-86567676D01*
X145453571Y-86567676D02*
X145358333Y-86662914D01*
X145358333Y-86662914D02*
X145263095Y-86710533D01*
X146405952Y-86853390D02*
X146310714Y-86805771D01*
X146310714Y-86805771D02*
X146263095Y-86758152D01*
X146263095Y-86758152D02*
X146215476Y-86662914D01*
X146215476Y-86662914D02*
X146215476Y-86615295D01*
X146215476Y-86615295D02*
X146263095Y-86520057D01*
X146263095Y-86520057D02*
X146310714Y-86472438D01*
X146310714Y-86472438D02*
X146405952Y-86424819D01*
X146405952Y-86424819D02*
X146596428Y-86424819D01*
X146596428Y-86424819D02*
X146691666Y-86472438D01*
X146691666Y-86472438D02*
X146739285Y-86520057D01*
X146739285Y-86520057D02*
X146786904Y-86615295D01*
X146786904Y-86615295D02*
X146786904Y-86662914D01*
X146786904Y-86662914D02*
X146739285Y-86758152D01*
X146739285Y-86758152D02*
X146691666Y-86805771D01*
X146691666Y-86805771D02*
X146596428Y-86853390D01*
X146596428Y-86853390D02*
X146405952Y-86853390D01*
X146405952Y-86853390D02*
X146310714Y-86901009D01*
X146310714Y-86901009D02*
X146263095Y-86948628D01*
X146263095Y-86948628D02*
X146215476Y-87043866D01*
X146215476Y-87043866D02*
X146215476Y-87234342D01*
X146215476Y-87234342D02*
X146263095Y-87329580D01*
X146263095Y-87329580D02*
X146310714Y-87377200D01*
X146310714Y-87377200D02*
X146405952Y-87424819D01*
X146405952Y-87424819D02*
X146596428Y-87424819D01*
X146596428Y-87424819D02*
X146691666Y-87377200D01*
X146691666Y-87377200D02*
X146739285Y-87329580D01*
X146739285Y-87329580D02*
X146786904Y-87234342D01*
X146786904Y-87234342D02*
X146786904Y-87043866D01*
X146786904Y-87043866D02*
X146739285Y-86948628D01*
X146739285Y-86948628D02*
X146691666Y-86901009D01*
X146691666Y-86901009D02*
X146596428Y-86853390D01*
X177316666Y-78104819D02*
X177316666Y-78819104D01*
X177316666Y-78819104D02*
X177269047Y-78961961D01*
X177269047Y-78961961D02*
X177173809Y-79057200D01*
X177173809Y-79057200D02*
X177030952Y-79104819D01*
X177030952Y-79104819D02*
X176935714Y-79104819D01*
X178316666Y-79104819D02*
X177745238Y-79104819D01*
X178030952Y-79104819D02*
X178030952Y-78104819D01*
X178030952Y-78104819D02*
X177935714Y-78247676D01*
X177935714Y-78247676D02*
X177840476Y-78342914D01*
X177840476Y-78342914D02*
X177745238Y-78390533D01*
X145242142Y-65739580D02*
X145194523Y-65787200D01*
X145194523Y-65787200D02*
X145051666Y-65834819D01*
X145051666Y-65834819D02*
X144956428Y-65834819D01*
X144956428Y-65834819D02*
X144813571Y-65787200D01*
X144813571Y-65787200D02*
X144718333Y-65691961D01*
X144718333Y-65691961D02*
X144670714Y-65596723D01*
X144670714Y-65596723D02*
X144623095Y-65406247D01*
X144623095Y-65406247D02*
X144623095Y-65263390D01*
X144623095Y-65263390D02*
X144670714Y-65072914D01*
X144670714Y-65072914D02*
X144718333Y-64977676D01*
X144718333Y-64977676D02*
X144813571Y-64882438D01*
X144813571Y-64882438D02*
X144956428Y-64834819D01*
X144956428Y-64834819D02*
X145051666Y-64834819D01*
X145051666Y-64834819D02*
X145194523Y-64882438D01*
X145194523Y-64882438D02*
X145242142Y-64930057D01*
X146194523Y-65834819D02*
X145623095Y-65834819D01*
X145908809Y-65834819D02*
X145908809Y-64834819D01*
X145908809Y-64834819D02*
X145813571Y-64977676D01*
X145813571Y-64977676D02*
X145718333Y-65072914D01*
X145718333Y-65072914D02*
X145623095Y-65120533D01*
X147051666Y-65168152D02*
X147051666Y-65834819D01*
X146813571Y-64787200D02*
X146575476Y-65501485D01*
X146575476Y-65501485D02*
X147194523Y-65501485D01*
X197066666Y-95734819D02*
X197066666Y-96449104D01*
X197066666Y-96449104D02*
X197019047Y-96591961D01*
X197019047Y-96591961D02*
X196923809Y-96687200D01*
X196923809Y-96687200D02*
X196780952Y-96734819D01*
X196780952Y-96734819D02*
X196685714Y-96734819D01*
X197495238Y-95830057D02*
X197542857Y-95782438D01*
X197542857Y-95782438D02*
X197638095Y-95734819D01*
X197638095Y-95734819D02*
X197876190Y-95734819D01*
X197876190Y-95734819D02*
X197971428Y-95782438D01*
X197971428Y-95782438D02*
X198019047Y-95830057D01*
X198019047Y-95830057D02*
X198066666Y-95925295D01*
X198066666Y-95925295D02*
X198066666Y-96020533D01*
X198066666Y-96020533D02*
X198019047Y-96163390D01*
X198019047Y-96163390D02*
X197447619Y-96734819D01*
X197447619Y-96734819D02*
X198066666Y-96734819D01*
D13*
X213938095Y-65257419D02*
X213938095Y-64257419D01*
X213938095Y-64733609D02*
X214509523Y-64733609D01*
X214509523Y-65257419D02*
X214509523Y-64257419D01*
X215509523Y-65257419D02*
X214938095Y-65257419D01*
X215223809Y-65257419D02*
X215223809Y-64257419D01*
X215223809Y-64257419D02*
X215128571Y-64400276D01*
X215128571Y-64400276D02*
X215033333Y-64495514D01*
X215033333Y-64495514D02*
X214938095Y-64543133D01*
D12*
X145242142Y-68249580D02*
X145194523Y-68297200D01*
X145194523Y-68297200D02*
X145051666Y-68344819D01*
X145051666Y-68344819D02*
X144956428Y-68344819D01*
X144956428Y-68344819D02*
X144813571Y-68297200D01*
X144813571Y-68297200D02*
X144718333Y-68201961D01*
X144718333Y-68201961D02*
X144670714Y-68106723D01*
X144670714Y-68106723D02*
X144623095Y-67916247D01*
X144623095Y-67916247D02*
X144623095Y-67773390D01*
X144623095Y-67773390D02*
X144670714Y-67582914D01*
X144670714Y-67582914D02*
X144718333Y-67487676D01*
X144718333Y-67487676D02*
X144813571Y-67392438D01*
X144813571Y-67392438D02*
X144956428Y-67344819D01*
X144956428Y-67344819D02*
X145051666Y-67344819D01*
X145051666Y-67344819D02*
X145194523Y-67392438D01*
X145194523Y-67392438D02*
X145242142Y-67440057D01*
X146194523Y-68344819D02*
X145623095Y-68344819D01*
X145908809Y-68344819D02*
X145908809Y-67344819D01*
X145908809Y-67344819D02*
X145813571Y-67487676D01*
X145813571Y-67487676D02*
X145718333Y-67582914D01*
X145718333Y-67582914D02*
X145623095Y-67630533D01*
X147099285Y-67344819D02*
X146623095Y-67344819D01*
X146623095Y-67344819D02*
X146575476Y-67821009D01*
X146575476Y-67821009D02*
X146623095Y-67773390D01*
X146623095Y-67773390D02*
X146718333Y-67725771D01*
X146718333Y-67725771D02*
X146956428Y-67725771D01*
X146956428Y-67725771D02*
X147051666Y-67773390D01*
X147051666Y-67773390D02*
X147099285Y-67821009D01*
X147099285Y-67821009D02*
X147146904Y-67916247D01*
X147146904Y-67916247D02*
X147146904Y-68154342D01*
X147146904Y-68154342D02*
X147099285Y-68249580D01*
X147099285Y-68249580D02*
X147051666Y-68297200D01*
X147051666Y-68297200D02*
X146956428Y-68344819D01*
X146956428Y-68344819D02*
X146718333Y-68344819D01*
X146718333Y-68344819D02*
X146623095Y-68297200D01*
X146623095Y-68297200D02*
X146575476Y-68249580D01*
D13*
X177238095Y-102957419D02*
X177238095Y-101957419D01*
X177238095Y-102433609D02*
X177809523Y-102433609D01*
X177809523Y-102957419D02*
X177809523Y-101957419D01*
X178238095Y-102052657D02*
X178285714Y-102005038D01*
X178285714Y-102005038D02*
X178380952Y-101957419D01*
X178380952Y-101957419D02*
X178619047Y-101957419D01*
X178619047Y-101957419D02*
X178714285Y-102005038D01*
X178714285Y-102005038D02*
X178761904Y-102052657D01*
X178761904Y-102052657D02*
X178809523Y-102147895D01*
X178809523Y-102147895D02*
X178809523Y-102243133D01*
X178809523Y-102243133D02*
X178761904Y-102385990D01*
X178761904Y-102385990D02*
X178190476Y-102957419D01*
X178190476Y-102957419D02*
X178809523Y-102957419D01*
D12*
X181090476Y-70904819D02*
X181090476Y-71619104D01*
X181090476Y-71619104D02*
X181042857Y-71761961D01*
X181042857Y-71761961D02*
X180947619Y-71857200D01*
X180947619Y-71857200D02*
X180804762Y-71904819D01*
X180804762Y-71904819D02*
X180709524Y-71904819D01*
X182090476Y-71904819D02*
X181519048Y-71904819D01*
X181804762Y-71904819D02*
X181804762Y-70904819D01*
X181804762Y-70904819D02*
X181709524Y-71047676D01*
X181709524Y-71047676D02*
X181614286Y-71142914D01*
X181614286Y-71142914D02*
X181519048Y-71190533D01*
X182947619Y-71238152D02*
X182947619Y-71904819D01*
X182709524Y-70857200D02*
X182471429Y-71571485D01*
X182471429Y-71571485D02*
X183090476Y-71571485D01*
X154780952Y-70704819D02*
X154447619Y-70228628D01*
X154209524Y-70704819D02*
X154209524Y-69704819D01*
X154209524Y-69704819D02*
X154590476Y-69704819D01*
X154590476Y-69704819D02*
X154685714Y-69752438D01*
X154685714Y-69752438D02*
X154733333Y-69800057D01*
X154733333Y-69800057D02*
X154780952Y-69895295D01*
X154780952Y-69895295D02*
X154780952Y-70038152D01*
X154780952Y-70038152D02*
X154733333Y-70133390D01*
X154733333Y-70133390D02*
X154685714Y-70181009D01*
X154685714Y-70181009D02*
X154590476Y-70228628D01*
X154590476Y-70228628D02*
X154209524Y-70228628D01*
X155733333Y-70704819D02*
X155161905Y-70704819D01*
X155447619Y-70704819D02*
X155447619Y-69704819D01*
X155447619Y-69704819D02*
X155352381Y-69847676D01*
X155352381Y-69847676D02*
X155257143Y-69942914D01*
X155257143Y-69942914D02*
X155161905Y-69990533D01*
X156352381Y-69704819D02*
X156447619Y-69704819D01*
X156447619Y-69704819D02*
X156542857Y-69752438D01*
X156542857Y-69752438D02*
X156590476Y-69800057D01*
X156590476Y-69800057D02*
X156638095Y-69895295D01*
X156638095Y-69895295D02*
X156685714Y-70085771D01*
X156685714Y-70085771D02*
X156685714Y-70323866D01*
X156685714Y-70323866D02*
X156638095Y-70514342D01*
X156638095Y-70514342D02*
X156590476Y-70609580D01*
X156590476Y-70609580D02*
X156542857Y-70657200D01*
X156542857Y-70657200D02*
X156447619Y-70704819D01*
X156447619Y-70704819D02*
X156352381Y-70704819D01*
X156352381Y-70704819D02*
X156257143Y-70657200D01*
X156257143Y-70657200D02*
X156209524Y-70609580D01*
X156209524Y-70609580D02*
X156161905Y-70514342D01*
X156161905Y-70514342D02*
X156114286Y-70323866D01*
X156114286Y-70323866D02*
X156114286Y-70085771D01*
X156114286Y-70085771D02*
X156161905Y-69895295D01*
X156161905Y-69895295D02*
X156209524Y-69800057D01*
X156209524Y-69800057D02*
X156257143Y-69752438D01*
X156257143Y-69752438D02*
X156352381Y-69704819D01*
X157304762Y-69704819D02*
X157400000Y-69704819D01*
X157400000Y-69704819D02*
X157495238Y-69752438D01*
X157495238Y-69752438D02*
X157542857Y-69800057D01*
X157542857Y-69800057D02*
X157590476Y-69895295D01*
X157590476Y-69895295D02*
X157638095Y-70085771D01*
X157638095Y-70085771D02*
X157638095Y-70323866D01*
X157638095Y-70323866D02*
X157590476Y-70514342D01*
X157590476Y-70514342D02*
X157542857Y-70609580D01*
X157542857Y-70609580D02*
X157495238Y-70657200D01*
X157495238Y-70657200D02*
X157400000Y-70704819D01*
X157400000Y-70704819D02*
X157304762Y-70704819D01*
X157304762Y-70704819D02*
X157209524Y-70657200D01*
X157209524Y-70657200D02*
X157161905Y-70609580D01*
X157161905Y-70609580D02*
X157114286Y-70514342D01*
X157114286Y-70514342D02*
X157066667Y-70323866D01*
X157066667Y-70323866D02*
X157066667Y-70085771D01*
X157066667Y-70085771D02*
X157114286Y-69895295D01*
X157114286Y-69895295D02*
X157161905Y-69800057D01*
X157161905Y-69800057D02*
X157209524Y-69752438D01*
X157209524Y-69752438D02*
X157304762Y-69704819D01*
X206741666Y-103479819D02*
X206741666Y-104194104D01*
X206741666Y-104194104D02*
X206694047Y-104336961D01*
X206694047Y-104336961D02*
X206598809Y-104432200D01*
X206598809Y-104432200D02*
X206455952Y-104479819D01*
X206455952Y-104479819D02*
X206360714Y-104479819D01*
X207646428Y-103479819D02*
X207455952Y-103479819D01*
X207455952Y-103479819D02*
X207360714Y-103527438D01*
X207360714Y-103527438D02*
X207313095Y-103575057D01*
X207313095Y-103575057D02*
X207217857Y-103717914D01*
X207217857Y-103717914D02*
X207170238Y-103908390D01*
X207170238Y-103908390D02*
X207170238Y-104289342D01*
X207170238Y-104289342D02*
X207217857Y-104384580D01*
X207217857Y-104384580D02*
X207265476Y-104432200D01*
X207265476Y-104432200D02*
X207360714Y-104479819D01*
X207360714Y-104479819D02*
X207551190Y-104479819D01*
X207551190Y-104479819D02*
X207646428Y-104432200D01*
X207646428Y-104432200D02*
X207694047Y-104384580D01*
X207694047Y-104384580D02*
X207741666Y-104289342D01*
X207741666Y-104289342D02*
X207741666Y-104051247D01*
X207741666Y-104051247D02*
X207694047Y-103956009D01*
X207694047Y-103956009D02*
X207646428Y-103908390D01*
X207646428Y-103908390D02*
X207551190Y-103860771D01*
X207551190Y-103860771D02*
X207360714Y-103860771D01*
X207360714Y-103860771D02*
X207265476Y-103908390D01*
X207265476Y-103908390D02*
X207217857Y-103956009D01*
X207217857Y-103956009D02*
X207170238Y-104051247D01*
X154208333Y-93084819D02*
X153875000Y-92608628D01*
X153636905Y-93084819D02*
X153636905Y-92084819D01*
X153636905Y-92084819D02*
X154017857Y-92084819D01*
X154017857Y-92084819D02*
X154113095Y-92132438D01*
X154113095Y-92132438D02*
X154160714Y-92180057D01*
X154160714Y-92180057D02*
X154208333Y-92275295D01*
X154208333Y-92275295D02*
X154208333Y-92418152D01*
X154208333Y-92418152D02*
X154160714Y-92513390D01*
X154160714Y-92513390D02*
X154113095Y-92561009D01*
X154113095Y-92561009D02*
X154017857Y-92608628D01*
X154017857Y-92608628D02*
X153636905Y-92608628D01*
X155160714Y-93084819D02*
X154589286Y-93084819D01*
X154875000Y-93084819D02*
X154875000Y-92084819D01*
X154875000Y-92084819D02*
X154779762Y-92227676D01*
X154779762Y-92227676D02*
X154684524Y-92322914D01*
X154684524Y-92322914D02*
X154589286Y-92370533D01*
X153799405Y-80104819D02*
X153799405Y-79104819D01*
X153799405Y-79104819D02*
X154037500Y-79104819D01*
X154037500Y-79104819D02*
X154180357Y-79152438D01*
X154180357Y-79152438D02*
X154275595Y-79247676D01*
X154275595Y-79247676D02*
X154323214Y-79342914D01*
X154323214Y-79342914D02*
X154370833Y-79533390D01*
X154370833Y-79533390D02*
X154370833Y-79676247D01*
X154370833Y-79676247D02*
X154323214Y-79866723D01*
X154323214Y-79866723D02*
X154275595Y-79961961D01*
X154275595Y-79961961D02*
X154180357Y-80057200D01*
X154180357Y-80057200D02*
X154037500Y-80104819D01*
X154037500Y-80104819D02*
X153799405Y-80104819D01*
X154704167Y-79104819D02*
X155323214Y-79104819D01*
X155323214Y-79104819D02*
X154989881Y-79485771D01*
X154989881Y-79485771D02*
X155132738Y-79485771D01*
X155132738Y-79485771D02*
X155227976Y-79533390D01*
X155227976Y-79533390D02*
X155275595Y-79581009D01*
X155275595Y-79581009D02*
X155323214Y-79676247D01*
X155323214Y-79676247D02*
X155323214Y-79914342D01*
X155323214Y-79914342D02*
X155275595Y-80009580D01*
X155275595Y-80009580D02*
X155227976Y-80057200D01*
X155227976Y-80057200D02*
X155132738Y-80104819D01*
X155132738Y-80104819D02*
X154847024Y-80104819D01*
X154847024Y-80104819D02*
X154751786Y-80057200D01*
X154751786Y-80057200D02*
X154704167Y-80009580D01*
X204828628Y-96176190D02*
X205304819Y-96176190D01*
X204304819Y-96509523D02*
X204828628Y-96176190D01*
X204828628Y-96176190D02*
X204304819Y-95842857D01*
X205304819Y-94985714D02*
X205304819Y-95557142D01*
X205304819Y-95271428D02*
X204304819Y-95271428D01*
X204304819Y-95271428D02*
X204447676Y-95366666D01*
X204447676Y-95366666D02*
X204542914Y-95461904D01*
X204542914Y-95461904D02*
X204590533Y-95557142D01*
X199274819Y-84111904D02*
X200084342Y-84111904D01*
X200084342Y-84111904D02*
X200179580Y-84064285D01*
X200179580Y-84064285D02*
X200227200Y-84016666D01*
X200227200Y-84016666D02*
X200274819Y-83921428D01*
X200274819Y-83921428D02*
X200274819Y-83730952D01*
X200274819Y-83730952D02*
X200227200Y-83635714D01*
X200227200Y-83635714D02*
X200179580Y-83588095D01*
X200179580Y-83588095D02*
X200084342Y-83540476D01*
X200084342Y-83540476D02*
X199274819Y-83540476D01*
X199370057Y-83111904D02*
X199322438Y-83064285D01*
X199322438Y-83064285D02*
X199274819Y-82969047D01*
X199274819Y-82969047D02*
X199274819Y-82730952D01*
X199274819Y-82730952D02*
X199322438Y-82635714D01*
X199322438Y-82635714D02*
X199370057Y-82588095D01*
X199370057Y-82588095D02*
X199465295Y-82540476D01*
X199465295Y-82540476D02*
X199560533Y-82540476D01*
X199560533Y-82540476D02*
X199703390Y-82588095D01*
X199703390Y-82588095D02*
X200274819Y-83159523D01*
X200274819Y-83159523D02*
X200274819Y-82540476D01*
D14*
%TO.C,J13*%
X212750000Y-61450000D02*
X211500000Y-61450000D01*
X210200000Y-61750000D02*
X210200000Y-62500000D01*
X210200000Y-62500000D02*
X207250000Y-62500000D01*
X207250000Y-62500000D02*
X207250000Y-65550000D01*
X212750000Y-62700000D02*
X212750000Y-61450000D01*
X210200000Y-68600000D02*
X207250000Y-68600000D01*
X207250000Y-68600000D02*
X207250000Y-65550000D01*
X210200000Y-69350000D02*
X210200000Y-68600000D01*
X212460000Y-61740000D02*
X206490000Y-61740000D01*
X206490000Y-69360000D01*
X212460000Y-69360000D01*
X212460000Y-61740000D01*
X212450000Y-61750000D02*
X211700000Y-61750000D01*
X211700000Y-63550000D01*
X212450000Y-63550000D01*
X212450000Y-61750000D01*
X212450000Y-65050000D02*
X211700000Y-65050000D01*
X211700000Y-66050000D01*
X212450000Y-66050000D01*
X212450000Y-65050000D01*
X212450000Y-67550000D02*
X211700000Y-67550000D01*
X211700000Y-69350000D01*
X212450000Y-69350000D01*
X212450000Y-67550000D01*
%TO.C,J12*%
X211300000Y-77125000D02*
X211300000Y-78375000D01*
X211600000Y-79675000D02*
X212350000Y-79675000D01*
X212350000Y-79675000D02*
X212350000Y-82625000D01*
X212350000Y-82625000D02*
X215400000Y-82625000D01*
X212550000Y-77125000D02*
X211300000Y-77125000D01*
X218450000Y-79675000D02*
X218450000Y-82625000D01*
X218450000Y-82625000D02*
X215400000Y-82625000D01*
X219200000Y-79675000D02*
X218450000Y-79675000D01*
X211590000Y-77415000D02*
X219210000Y-77415000D01*
X219210000Y-83385000D01*
X211590000Y-83385000D01*
X211590000Y-77415000D01*
X211600000Y-77425000D02*
X213400000Y-77425000D01*
X213400000Y-78175000D01*
X211600000Y-78175000D01*
X211600000Y-77425000D01*
X214900000Y-77425000D02*
X215900000Y-77425000D01*
X215900000Y-78175000D01*
X214900000Y-78175000D01*
X214900000Y-77425000D01*
X217400000Y-77425000D02*
X219200000Y-77425000D01*
X219200000Y-78175000D01*
X217400000Y-78175000D01*
X217400000Y-77425000D01*
%TO.C,P1*%
X189100000Y-62540000D02*
X189100000Y-60640000D01*
X189100000Y-66440000D02*
X189100000Y-64440000D01*
X198500000Y-60640000D02*
X189100000Y-60640000D01*
X198500000Y-62540000D02*
X198500000Y-60640000D01*
X198500000Y-66440000D02*
X198500000Y-64440000D01*
%TO.C,SW1*%
X207955000Y-91120000D02*
X207955000Y-93880000D01*
X210605000Y-91120000D02*
X207955000Y-91120000D01*
X210605000Y-91120000D02*
X210605000Y-93880000D01*
X210605000Y-93880000D02*
X207955000Y-93880000D01*
X211875000Y-91120000D02*
X213255000Y-91120000D01*
X213255000Y-91120000D02*
X213255000Y-92500000D01*
%TO.C,J9*%
X188780000Y-103080000D02*
X188780000Y-101700000D01*
X190160000Y-103080000D02*
X188780000Y-103080000D01*
X191430000Y-100320000D02*
X199160000Y-100320000D01*
X191430000Y-103080000D02*
X191430000Y-100320000D01*
X191430000Y-103080000D02*
X199160000Y-103080000D01*
X199160000Y-103080000D02*
X199160000Y-100320000D01*
%TO.C,R11*%
X149411359Y-92540000D02*
X149718641Y-92540000D01*
X149411359Y-93300000D02*
X149718641Y-93300000D01*
%TO.C,J7*%
X207550000Y-70125000D02*
X206300000Y-70125000D01*
X206300000Y-70125000D02*
X206300000Y-71375000D01*
X219200000Y-72675000D02*
X218450000Y-72675000D01*
X218450000Y-72675000D02*
X218450000Y-75625000D01*
X207350000Y-72675000D02*
X207350000Y-75625000D01*
X206600000Y-72675000D02*
X207350000Y-72675000D01*
X218450000Y-75625000D02*
X212900000Y-75625000D01*
X207350000Y-75625000D02*
X212900000Y-75625000D01*
X206590000Y-70415000D02*
X219210000Y-70415000D01*
X219210000Y-76385000D01*
X206590000Y-76385000D01*
X206590000Y-70415000D01*
X217400000Y-70425000D02*
X219200000Y-70425000D01*
X219200000Y-71175000D01*
X217400000Y-71175000D01*
X217400000Y-70425000D01*
X209900000Y-70425000D02*
X215900000Y-70425000D01*
X215900000Y-71175000D01*
X209900000Y-71175000D01*
X209900000Y-70425000D01*
X206600000Y-70425000D02*
X208400000Y-70425000D01*
X208400000Y-71175000D01*
X206600000Y-71175000D01*
X206600000Y-70425000D01*
%TO.C,Q1*%
X205125000Y-63020000D02*
X205125000Y-68555000D01*
X199475000Y-63020000D02*
X199475000Y-68555000D01*
X205125000Y-68555000D02*
X199475000Y-68555000D01*
X205130000Y-62710000D02*
X204800000Y-62470000D01*
X205130000Y-62230000D01*
X205130000Y-62710000D01*
G36*
X205130000Y-62710000D02*
G01*
X204800000Y-62470000D01*
X205130000Y-62230000D01*
X205130000Y-62710000D01*
G37*
%TO.C,C23*%
X138392164Y-75480000D02*
X138607836Y-75480000D01*
X138392164Y-76200000D02*
X138607836Y-76200000D01*
D12*
%TO.C,D4*%
X139960000Y-81450000D02*
X139960000Y-83450000D01*
X139960000Y-81450000D02*
X143820000Y-81450000D01*
X139960000Y-83450000D02*
X143820000Y-83450000D01*
D14*
%TO.C,FB1*%
X208190000Y-79065580D02*
X208190000Y-78784420D01*
X209210000Y-79065580D02*
X209210000Y-78784420D01*
%TO.C,U3*%
X186490000Y-84800000D02*
X186490000Y-88560000D01*
X186490000Y-88560000D02*
X187750000Y-88560000D01*
X193310000Y-84800000D02*
X193310000Y-88560000D01*
X193310000Y-88560000D02*
X192050000Y-88560000D01*
X193540000Y-83760000D02*
X193210000Y-83520000D01*
X193540000Y-83280000D01*
X193540000Y-83760000D01*
G36*
X193540000Y-83760000D02*
G01*
X193210000Y-83520000D01*
X193540000Y-83280000D01*
X193540000Y-83760000D01*
G37*
%TO.C,C2*%
X186240000Y-81760000D02*
X186240000Y-78910000D01*
X193895563Y-81760000D02*
X186240000Y-81760000D01*
X194960000Y-80695563D02*
X193895563Y-81760000D01*
X194960000Y-80695563D02*
X194960000Y-78910000D01*
X195700000Y-80410000D02*
X195700000Y-79410000D01*
X196200000Y-79910000D02*
X195200000Y-79910000D01*
X194960000Y-74104437D02*
X194960000Y-75890000D01*
X194960000Y-74104437D02*
X193895563Y-73040000D01*
X186240000Y-73040000D02*
X186240000Y-75890000D01*
X193895563Y-73040000D02*
X186240000Y-73040000D01*
%TO.C,C19*%
X137862164Y-90690000D02*
X138077836Y-90690000D01*
X137862164Y-91410000D02*
X138077836Y-91410000D01*
D12*
%TO.C,D1*%
X139960000Y-78100000D02*
X139960000Y-80100000D01*
X139960000Y-78100000D02*
X143820000Y-78100000D01*
X139960000Y-80100000D02*
X143820000Y-80100000D01*
D14*
%TO.C,C24*%
X141977164Y-87950000D02*
X142192836Y-87950000D01*
X141977164Y-88670000D02*
X142192836Y-88670000D01*
%TO.C,C16*%
X137862164Y-86750000D02*
X138077836Y-86750000D01*
X137862164Y-87470000D02*
X138077836Y-87470000D01*
%TO.C,U1*%
X180210000Y-87510000D02*
X179485000Y-87510000D01*
X180210000Y-86785000D02*
X180210000Y-87510000D01*
X180210000Y-82290000D02*
X180210000Y-83015000D01*
X179485000Y-82290000D02*
X180210000Y-82290000D01*
X175715000Y-87510000D02*
X174990000Y-87510000D01*
X174990000Y-87510000D02*
X174990000Y-86785000D01*
X174990000Y-83015000D02*
X174990000Y-82290000D01*
X174990000Y-82290000D02*
X175715000Y-82290000D01*
X174490000Y-83400000D02*
X174160000Y-83640000D01*
X174160000Y-83160000D01*
X174490000Y-83400000D01*
G36*
X174490000Y-83400000D02*
G01*
X174160000Y-83640000D01*
X174160000Y-83160000D01*
X174490000Y-83400000D01*
G37*
%TO.C,C17*%
X137862164Y-88720000D02*
X138077836Y-88720000D01*
X137862164Y-89440000D02*
X138077836Y-89440000D01*
%TO.C,J10*%
X186140000Y-99480000D02*
X186140000Y-98100000D01*
X187520000Y-99480000D02*
X186140000Y-99480000D01*
X188790000Y-96720000D02*
X199060000Y-96720000D01*
X188790000Y-99480000D02*
X188790000Y-96720000D01*
X188790000Y-99480000D02*
X199060000Y-99480000D01*
X199060000Y-99480000D02*
X199060000Y-96720000D01*
%TO.C,C22*%
X141492164Y-72460000D02*
X141707836Y-72460000D01*
X141492164Y-73180000D02*
X141707836Y-73180000D01*
%TO.C,R9*%
X180710436Y-80510000D02*
X182164564Y-80510000D01*
X180710436Y-78690000D02*
X182164564Y-78690000D01*
%TO.C,C18*%
X145384420Y-87890000D02*
X145665580Y-87890000D01*
X145384420Y-88910000D02*
X145665580Y-88910000D01*
%TO.C,J1*%
X184250000Y-77850000D02*
X184250000Y-76600000D01*
X183950000Y-75300000D02*
X183200000Y-75300000D01*
X183200000Y-75300000D02*
X183200000Y-72350000D01*
X183200000Y-72350000D02*
X177650000Y-72350000D01*
X183000000Y-77850000D02*
X184250000Y-77850000D01*
X172100000Y-75300000D02*
X172100000Y-72350000D01*
X172100000Y-72350000D02*
X177650000Y-72350000D01*
X171350000Y-75300000D02*
X172100000Y-75300000D01*
X183960000Y-77560000D02*
X171340000Y-77560000D01*
X171340000Y-71590000D01*
X183960000Y-71590000D01*
X183960000Y-77560000D01*
X183950000Y-77550000D02*
X182150000Y-77550000D01*
X182150000Y-76800000D01*
X183950000Y-76800000D01*
X183950000Y-77550000D01*
X180650000Y-77550000D02*
X174650000Y-77550000D01*
X174650000Y-76800000D01*
X180650000Y-76800000D01*
X180650000Y-77550000D01*
X173150000Y-77550000D02*
X171350000Y-77550000D01*
X171350000Y-76800000D01*
X173150000Y-76800000D01*
X173150000Y-77550000D01*
%TO.C,C14*%
X145744420Y-66300000D02*
X146025580Y-66300000D01*
X145744420Y-67320000D02*
X146025580Y-67320000D01*
%TO.C,J2*%
X196020000Y-92630000D02*
X196020000Y-87440000D01*
X198780000Y-87440000D02*
X196020000Y-87440000D01*
X198780000Y-92630000D02*
X196020000Y-92630000D01*
X198780000Y-92630000D02*
X198780000Y-87440000D01*
X198780000Y-93900000D02*
X198780000Y-95280000D01*
X198780000Y-95280000D02*
X197400000Y-95280000D01*
%TO.C,C15*%
X145744420Y-68810000D02*
X146025580Y-68810000D01*
X145744420Y-69830000D02*
X146025580Y-69830000D01*
%TO.C,J14*%
X176140000Y-64440000D02*
X187660000Y-64440000D01*
X176140000Y-66160000D02*
X176140000Y-64440000D01*
X176590000Y-66160000D02*
X176140000Y-66160000D01*
X176590000Y-69810000D02*
X176590000Y-66160000D01*
X179740000Y-69810000D02*
X176590000Y-69810000D01*
X187210000Y-66160000D02*
X187210000Y-69810000D01*
X187210000Y-69810000D02*
X185060000Y-69810000D01*
X187660000Y-64440000D02*
X187660000Y-66160000D01*
X187660000Y-66160000D02*
X187210000Y-66160000D01*
X184450000Y-69940000D02*
X184120000Y-69700000D01*
X184450000Y-69460000D01*
X184450000Y-69940000D01*
G36*
X184450000Y-69940000D02*
G01*
X184120000Y-69700000D01*
X184450000Y-69460000D01*
X184450000Y-69940000D01*
G37*
%TO.C,R100*%
X174127064Y-80510000D02*
X172672936Y-80510000D01*
X174127064Y-78690000D02*
X172672936Y-78690000D01*
%TO.C,J6*%
X200050000Y-100725000D02*
X200800000Y-100725000D01*
X200800000Y-97775000D02*
X207600000Y-97775000D01*
X200800000Y-100725000D02*
X200800000Y-97775000D01*
X214200000Y-103275000D02*
X215450000Y-103275000D01*
X214400000Y-97775000D02*
X207600000Y-97775000D01*
X214400000Y-100725000D02*
X214400000Y-97775000D01*
X215150000Y-100725000D02*
X214400000Y-100725000D01*
X215450000Y-103275000D02*
X215450000Y-102025000D01*
X201850000Y-102975000D02*
X200050000Y-102975000D01*
X200050000Y-102225000D01*
X201850000Y-102225000D01*
X201850000Y-102975000D01*
X211850000Y-102975000D02*
X203350000Y-102975000D01*
X203350000Y-102225000D01*
X211850000Y-102225000D01*
X211850000Y-102975000D01*
X215150000Y-102975000D02*
X213350000Y-102975000D01*
X213350000Y-102225000D01*
X215150000Y-102225000D01*
X215150000Y-102975000D01*
X215160000Y-102985000D02*
X200040000Y-102985000D01*
X200040000Y-97015000D01*
X215160000Y-97015000D01*
X215160000Y-102985000D01*
%TO.C,R1*%
X154221359Y-93420000D02*
X154528641Y-93420000D01*
X154221359Y-94180000D02*
X154528641Y-94180000D01*
%TO.C,D3*%
X153777500Y-80490000D02*
X155297500Y-80490000D01*
X153777500Y-80540000D02*
X153777500Y-80490000D01*
X153777500Y-82440000D02*
X153777500Y-81660000D01*
X153777500Y-83610000D02*
X153777500Y-83560000D01*
X155297500Y-80490000D02*
X155297500Y-81490000D01*
X155297500Y-82610000D02*
X155297500Y-83610000D01*
X155297500Y-83610000D02*
X153777500Y-83610000D01*
X153477500Y-82000000D02*
X152997500Y-82000000D01*
X153237500Y-81670000D01*
X153477500Y-82000000D01*
G36*
X153477500Y-82000000D02*
G01*
X152997500Y-82000000D01*
X153237500Y-81670000D01*
X153477500Y-82000000D01*
G37*
%TO.C,Y1*%
X202890000Y-94560000D02*
X206310000Y-94560000D01*
X206310000Y-94560000D02*
X206310000Y-90440000D01*
%TO.C,U2*%
X201040000Y-80740000D02*
X201515000Y-80740000D01*
X201040000Y-81215000D02*
X201040000Y-80740000D01*
X201040000Y-85960000D02*
X201040000Y-85485000D01*
X201515000Y-85960000D02*
X201040000Y-85960000D01*
X205785000Y-80740000D02*
X206260000Y-80740000D01*
X206260000Y-80740000D02*
X206260000Y-81215000D01*
X206260000Y-85485000D02*
X206260000Y-85960000D01*
X206260000Y-85960000D02*
X205785000Y-85960000D01*
X202140000Y-86820000D02*
X201660000Y-86820000D01*
X201900000Y-86490000D01*
X202140000Y-86820000D01*
G36*
X202140000Y-86820000D02*
G01*
X201660000Y-86820000D01*
X201900000Y-86490000D01*
X202140000Y-86820000D01*
G37*
%TD*%
%LPC*%
D15*
%TO.C,J13*%
X210000000Y-64300000D03*
D16*
X210000000Y-66800000D03*
%TD*%
D17*
%TO.C,J12*%
X214150000Y-79875000D03*
D18*
X216650000Y-79875000D03*
%TD*%
D19*
%TO.C,R16*%
X146400000Y-73200000D03*
X147400000Y-73200000D03*
%TD*%
%TO.C,R31*%
X152410000Y-76460000D03*
X153410000Y-76460000D03*
%TD*%
D20*
%TO.C,C22*%
X202300000Y-92600000D03*
X202300000Y-93600000D03*
%TD*%
D19*
%TO.C,C20*%
X208400000Y-81900000D03*
X209400000Y-81900000D03*
%TD*%
D21*
%TO.C,P1*%
X196690000Y-67140000D03*
X190910000Y-67140000D03*
D22*
X197050000Y-68585000D03*
X196250000Y-68585000D03*
D23*
X195050000Y-68585000D03*
X194050000Y-68585000D03*
X193550000Y-68585000D03*
X192550000Y-68585000D03*
D22*
X191350000Y-68585000D03*
X190550000Y-68585000D03*
X190550000Y-68585000D03*
X191350000Y-68585000D03*
D23*
X192050000Y-68585000D03*
X193050000Y-68585000D03*
X194550000Y-68585000D03*
X195550000Y-68585000D03*
D22*
X196250000Y-68585000D03*
X197050000Y-68585000D03*
D24*
X198120000Y-67670000D03*
D25*
X198120000Y-63490000D03*
D24*
X189480000Y-67670000D03*
D25*
X189480000Y-63490000D03*
%TD*%
D26*
%TO.C,SW1*%
X211875000Y-92500000D03*
D27*
X209335000Y-92500000D03*
%TD*%
D19*
%TO.C,R29*%
X140110000Y-68560000D03*
X141110000Y-68560000D03*
%TD*%
D28*
%TO.C,C11*%
X146240000Y-79100000D03*
X149200000Y-79100000D03*
%TD*%
D19*
%TO.C,R24*%
X152410000Y-72760000D03*
X153410000Y-72760000D03*
%TD*%
D26*
%TO.C,J9*%
X190160000Y-101700000D03*
D27*
X192700000Y-101700000D03*
X195240000Y-101700000D03*
X197780000Y-101700000D03*
%TD*%
D29*
%TO.C,R11*%
X149055000Y-92920000D03*
X150075000Y-92920000D03*
%TD*%
D30*
%TO.C,J7*%
X209150000Y-72875000D03*
D31*
X211650000Y-72875000D03*
X214150000Y-72875000D03*
X216650000Y-72875000D03*
%TD*%
D32*
%TO.C,Q1*%
X204572500Y-65220000D03*
X200027500Y-65220000D03*
D33*
X202300000Y-66300000D03*
D34*
X204515000Y-68090000D03*
X200085000Y-68090000D03*
D35*
X200395000Y-62505000D03*
X204205000Y-62505000D03*
X202935000Y-62505000D03*
X201665000Y-62505000D03*
%TD*%
D19*
%TO.C,R23*%
X152410000Y-70910000D03*
X153410000Y-70910000D03*
%TD*%
D36*
%TO.C,C23*%
X138020000Y-75840000D03*
X138980000Y-75840000D03*
%TD*%
D19*
%TO.C,R4*%
X182200000Y-85900000D03*
X183200000Y-85900000D03*
%TD*%
D37*
%TO.C,C20*%
X150525000Y-87100000D03*
X151165000Y-87100000D03*
%TD*%
D19*
%TO.C,R19*%
X152410000Y-67210000D03*
X153410000Y-67210000D03*
%TD*%
%TO.C,R25*%
X152410000Y-74610000D03*
X153410000Y-74610000D03*
%TD*%
D37*
%TO.C,C21*%
X150170000Y-70910000D03*
X150810000Y-70910000D03*
%TD*%
D38*
%TO.C,C5*%
X173100000Y-86900000D03*
X172100000Y-86900000D03*
%TD*%
D39*
%TO.C,D4*%
X140770000Y-82450000D03*
X143570000Y-82450000D03*
%TD*%
D40*
%TO.C,FB1*%
X208700000Y-79700000D03*
X208700000Y-78150000D03*
%TD*%
D41*
%TO.C,U3*%
X192200000Y-83500000D03*
X189900000Y-83500000D03*
D42*
X189900000Y-89800000D03*
D41*
X187600000Y-83500000D03*
%TD*%
D43*
%TO.C,C2*%
X194300000Y-77400000D03*
X186900000Y-77400000D03*
%TD*%
D44*
%TO.C,C23*%
X206900000Y-93800000D03*
X206900000Y-92800000D03*
%TD*%
D36*
%TO.C,C19*%
X137490000Y-91050000D03*
X138450000Y-91050000D03*
%TD*%
D39*
%TO.C,D1*%
X140770000Y-79100000D03*
X143570000Y-79100000D03*
%TD*%
D38*
%TO.C,R6*%
X183200000Y-84400000D03*
X182200000Y-84400000D03*
%TD*%
D36*
%TO.C,C24*%
X141605000Y-88310000D03*
X142565000Y-88310000D03*
%TD*%
D45*
%TO.C,C19*%
X200800000Y-88620000D03*
X200800000Y-90180000D03*
%TD*%
D38*
%TO.C,C3*%
X173000000Y-82200000D03*
X172000000Y-82200000D03*
%TD*%
D36*
%TO.C,C16*%
X137490000Y-87110000D03*
X138450000Y-87110000D03*
%TD*%
D46*
%TO.C,U1*%
X175150000Y-83400000D03*
X175150000Y-83900000D03*
X175150000Y-84400000D03*
X175150000Y-84900000D03*
X175150000Y-85400000D03*
X175150000Y-85900000D03*
X175150000Y-86400000D03*
D47*
X176100000Y-87350000D03*
X176600000Y-87350000D03*
X177100000Y-87350000D03*
X177600000Y-87350000D03*
X178100000Y-87350000D03*
X178600000Y-87350000D03*
X179100000Y-87350000D03*
D46*
X180050000Y-86400000D03*
X180050000Y-85900000D03*
X180050000Y-85400000D03*
X180050000Y-84900000D03*
X180050000Y-84400000D03*
X180050000Y-83900000D03*
X180050000Y-83400000D03*
D47*
X179100000Y-82450000D03*
X178600000Y-82450000D03*
X178100000Y-82450000D03*
X177600000Y-82450000D03*
X177100000Y-82450000D03*
X176600000Y-82450000D03*
X176100000Y-82450000D03*
D48*
X177600000Y-84900000D03*
%TD*%
D44*
%TO.C,R8*%
X178600000Y-90600000D03*
X178600000Y-89600000D03*
%TD*%
D36*
%TO.C,C17*%
X137490000Y-89080000D03*
X138450000Y-89080000D03*
%TD*%
D26*
%TO.C,J10*%
X187520000Y-98100000D03*
D27*
X190060000Y-98100000D03*
X192600000Y-98100000D03*
X195140000Y-98100000D03*
X197680000Y-98100000D03*
%TD*%
D36*
%TO.C,C22*%
X141120000Y-72820000D03*
X142080000Y-72820000D03*
%TD*%
D19*
%TO.C,C18*%
X208400000Y-81000000D03*
X209400000Y-81000000D03*
%TD*%
D49*
%TO.C,H3*%
X175000000Y-62200000D03*
%TD*%
D44*
%TO.C,C17*%
X207500000Y-78900000D03*
X207500000Y-77900000D03*
%TD*%
D19*
%TO.C,C4*%
X182200000Y-82400000D03*
X183200000Y-82400000D03*
%TD*%
D50*
%TO.C,R9*%
X179975000Y-79600000D03*
X182900000Y-79600000D03*
%TD*%
D51*
%TO.C,C18*%
X144750000Y-88400000D03*
X146300000Y-88400000D03*
%TD*%
D38*
%TO.C,R5*%
X173100000Y-83200000D03*
X172100000Y-83200000D03*
%TD*%
D44*
%TO.C,R2*%
X179500000Y-90600000D03*
X179500000Y-89600000D03*
%TD*%
D28*
%TO.C,C7*%
X173420000Y-90300000D03*
X176380000Y-90300000D03*
%TD*%
D52*
%TO.C,J1*%
X181400000Y-75100000D03*
D31*
X178900000Y-75100000D03*
X176400000Y-75100000D03*
X173900000Y-75100000D03*
%TD*%
D44*
%TO.C,C8*%
X205400000Y-78900000D03*
X205400000Y-77900000D03*
%TD*%
D51*
%TO.C,C14*%
X145110000Y-66810000D03*
X146660000Y-66810000D03*
%TD*%
D28*
%TO.C,C12*%
X146240000Y-82450000D03*
X149200000Y-82450000D03*
%TD*%
D38*
%TO.C,R7*%
X198500000Y-84700000D03*
X197500000Y-84700000D03*
%TD*%
D19*
%TO.C,R30*%
X146400000Y-76900000D03*
X147400000Y-76900000D03*
%TD*%
D26*
%TO.C,J2*%
X197400000Y-93900000D03*
D27*
X197400000Y-91360000D03*
X197400000Y-88820000D03*
%TD*%
D49*
%TO.C,H1*%
X214700000Y-62300000D03*
%TD*%
D51*
%TO.C,C15*%
X145110000Y-69320000D03*
X146660000Y-69320000D03*
%TD*%
D20*
%TO.C,C16*%
X201900000Y-88400000D03*
X201900000Y-89400000D03*
%TD*%
D19*
%TO.C,C13*%
X155900000Y-86000000D03*
X156900000Y-86000000D03*
%TD*%
D49*
%TO.C,H2*%
X178000000Y-100000000D03*
%TD*%
D53*
%TO.C,J14*%
X183650000Y-69700000D03*
X183150000Y-69700000D03*
X182650000Y-69700000D03*
X182150000Y-69700000D03*
X181650000Y-69700000D03*
X181150000Y-69700000D03*
X180650000Y-69700000D03*
X180150000Y-69700000D03*
D54*
X185900000Y-68575000D03*
D55*
X177900000Y-68575000D03*
%TD*%
D44*
%TO.C,C6*%
X172100000Y-86000000D03*
X172100000Y-85000000D03*
%TD*%
D19*
%TO.C,R20*%
X152410000Y-69060000D03*
X153410000Y-69060000D03*
%TD*%
%TO.C,R27*%
X146400000Y-75050000D03*
X147400000Y-75050000D03*
%TD*%
%TO.C,C1*%
X146400000Y-71350000D03*
X147400000Y-71350000D03*
%TD*%
D56*
%TO.C,R100*%
X174862500Y-79600000D03*
X171937500Y-79600000D03*
%TD*%
D52*
%TO.C,J6*%
X212600000Y-100525000D03*
D31*
X210100000Y-100525000D03*
X207600000Y-100525000D03*
X205100000Y-100525000D03*
X202600000Y-100525000D03*
%TD*%
D29*
%TO.C,R1*%
X153865000Y-93800000D03*
X154885000Y-93800000D03*
%TD*%
D19*
%TO.C,R26*%
X140110000Y-64860000D03*
X141110000Y-64860000D03*
%TD*%
D44*
%TO.C,R21*%
X177700000Y-90600000D03*
X177700000Y-89600000D03*
%TD*%
D19*
%TO.C,R28*%
X140110000Y-66710000D03*
X141110000Y-66710000D03*
%TD*%
D57*
%TO.C,D3*%
X153600000Y-81100000D03*
X153600000Y-83000000D03*
X155475000Y-82050000D03*
%TD*%
D58*
%TO.C,Y1*%
X205450000Y-93600000D03*
X205450000Y-91400000D03*
X203750000Y-91400000D03*
X203750000Y-93600000D03*
%TD*%
D59*
%TO.C,U2*%
X201900000Y-85787500D03*
X202400000Y-85787500D03*
X202900000Y-85787500D03*
X203400000Y-85787500D03*
X203900000Y-85787500D03*
X204400000Y-85787500D03*
X204900000Y-85787500D03*
X205400000Y-85787500D03*
D60*
X206087500Y-85100000D03*
X206087500Y-84600000D03*
X206087500Y-84100000D03*
X206087500Y-83600000D03*
X206087500Y-83100000D03*
X206087500Y-82600000D03*
X206087500Y-82100000D03*
X206087500Y-81600000D03*
D59*
X205400000Y-80912500D03*
X204900000Y-80912500D03*
X204400000Y-80912500D03*
X203900000Y-80912500D03*
X203400000Y-80912500D03*
X202900000Y-80912500D03*
X202400000Y-80912500D03*
X201900000Y-80912500D03*
D60*
X201212500Y-81600000D03*
X201212500Y-82100000D03*
X201212500Y-82600000D03*
X201212500Y-83100000D03*
X201212500Y-83600000D03*
X201212500Y-84100000D03*
X201212500Y-84600000D03*
X201212500Y-85100000D03*
D61*
X203650000Y-83350000D03*
%TD*%
D44*
%TO.C,R11*%
X203700000Y-89300000D03*
X203700000Y-88300000D03*
%TD*%
D19*
%TO.C,R3*%
X172100000Y-84100000D03*
X173100000Y-84100000D03*
%TD*%
%LPD*%
M02*
