%TF.GenerationSoftware,KiCad,Pcbnew,9.0.7*%
%TF.CreationDate,2026-03-25T21:57:08+11:00*%
%TF.ProjectId,A1-Toolhead-Board,41312d54-6f6f-46c6-9865-61642d426f61,rev?*%
%TF.SameCoordinates,Original*%
%TF.FileFunction,Legend,Bot*%
%TF.FilePolarity,Positive*%
%FSLAX46Y46*%
G04 Gerber Fmt 4.6, Leading zero omitted, Abs format (unit mm)*
G04 Created by KiCad (PCBNEW 9.0.7) date 2026-03-25 21:57:08*
%MOMM*%
%LPD*%
G01*
G04 APERTURE LIST*
G04 Aperture macros list*
%AMRoundRect*
0 Rectangle with rounded corners*
0 $1 Rounding radius*
0 $2 $3 $4 $5 $6 $7 $8 $9 X,Y pos of 4 corners*
0 Add a 4 corners polygon primitive as box body*
4,1,4,$2,$3,$4,$5,$6,$7,$8,$9,$2,$3,0*
0 Add four circle primitives for the rounded corners*
1,1,$1+$1,$2,$3*
1,1,$1+$1,$4,$5*
1,1,$1+$1,$6,$7*
1,1,$1+$1,$8,$9*
0 Add four rect primitives between the rounded corners*
20,1,$1+$1,$2,$3,$4,$5,0*
20,1,$1+$1,$4,$5,$6,$7,0*
20,1,$1+$1,$6,$7,$8,$9,0*
20,1,$1+$1,$8,$9,$2,$3,0*%
G04 Aperture macros list end*
%ADD10RoundRect,0.250000X-0.750000X0.600000X-0.750000X-0.600000X0.750000X-0.600000X0.750000X0.600000X0*%
%ADD11O,2.000000X1.700000*%
%ADD12RoundRect,0.250000X-0.600000X-0.750000X0.600000X-0.750000X0.600000X0.750000X-0.600000X0.750000X0*%
%ADD13O,1.700000X2.000000*%
%ADD14C,0.650000*%
%ADD15O,1.000000X2.100000*%
%ADD16O,1.000000X1.600000*%
%ADD17R,1.700000X1.700000*%
%ADD18C,1.700000*%
%ADD19RoundRect,0.250000X-0.600000X-0.725000X0.600000X-0.725000X0.600000X0.725000X-0.600000X0.725000X0*%
%ADD20O,1.700000X1.950000*%
%ADD21C,3.000000*%
%ADD22RoundRect,0.250000X0.600000X0.725000X-0.600000X0.725000X-0.600000X-0.725000X0.600000X-0.725000X0*%
G04 APERTURE END LIST*
%LPC*%
D10*
%TO.C,J13*%
X210000000Y-64300000D03*
D11*
X210000000Y-66800000D03*
%TD*%
D12*
%TO.C,J12*%
X214150000Y-79875000D03*
D13*
X216650000Y-79875000D03*
%TD*%
D14*
%TO.C,P1*%
X196690000Y-67140000D03*
X190910000Y-67140000D03*
D15*
X198120000Y-67670000D03*
D16*
X198120000Y-63490000D03*
D15*
X189480000Y-67670000D03*
D16*
X189480000Y-63490000D03*
%TD*%
D17*
%TO.C,SW1*%
X211875000Y-92500000D03*
D18*
X209335000Y-92500000D03*
%TD*%
D17*
%TO.C,J9*%
X190160000Y-101700000D03*
D18*
X192700000Y-101700000D03*
X195240000Y-101700000D03*
X197780000Y-101700000D03*
%TD*%
D19*
%TO.C,J7*%
X209150000Y-72875000D03*
D20*
X211650000Y-72875000D03*
X214150000Y-72875000D03*
X216650000Y-72875000D03*
%TD*%
D17*
%TO.C,J10*%
X187520000Y-98100000D03*
D18*
X190060000Y-98100000D03*
X192600000Y-98100000D03*
X195140000Y-98100000D03*
X197680000Y-98100000D03*
%TD*%
D21*
%TO.C,H3*%
X175000000Y-62200000D03*
%TD*%
D22*
%TO.C,J1*%
X181400000Y-75100000D03*
D20*
X178900000Y-75100000D03*
X176400000Y-75100000D03*
X173900000Y-75100000D03*
%TD*%
D17*
%TO.C,J2*%
X197400000Y-93900000D03*
D18*
X197400000Y-91360000D03*
X197400000Y-88820000D03*
%TD*%
D21*
%TO.C,H1*%
X214700000Y-62300000D03*
%TD*%
%TO.C,H2*%
X178000000Y-100000000D03*
%TD*%
D22*
%TO.C,J6*%
X212600000Y-100525000D03*
D20*
X210100000Y-100525000D03*
X207600000Y-100525000D03*
X205100000Y-100525000D03*
X202600000Y-100525000D03*
%TD*%
%LPD*%
M02*
